<svg width="75" height="88" viewBox="0 0 75 88" fill="none" xmlns="http://www.w3.org/2000/svg">
<g clip-path="url(#clip0_4869_42692)">
<path d="M39.3076 0C48.3815 3.96633e-07 55.7372 7.35581 55.7373 16.4297C55.7373 16.913 55.7147 17.3915 55.6738 17.8643C66.6254 23.9615 74.0352 35.6532 74.0352 49.0771C74.0349 68.7944 58.0512 84.7781 38.334 84.7783C29.9699 84.7783 22.2778 81.9014 16.1924 77.084L-0.0976562 87.4707L10.292 71.1748C5.49528 65.0963 2.63193 57.4213 2.63184 49.0771C2.63184 34.894 10.9024 22.642 22.8838 16.8818C22.8797 16.7317 22.8779 16.5808 22.8779 16.4297C22.878 7.35585 30.2338 7.07285e-05 39.3076 0Z" fill="white"/>
<path d="M47.3117 73.8296C47.2618 73.8296 47.2232 73.8115 47.1959 73.7751C47.1687 73.7388 47.1596 73.6957 47.1687 73.6457L47.7205 71.0707C47.7296 71.0207 47.7545 70.9775 47.7954 70.9412C47.8408 70.9049 47.8885 70.8867 47.9385 70.8867H49.1238C49.1738 70.8867 49.2124 70.9049 49.2396 70.9412C49.2714 70.9775 49.2828 71.0207 49.2737 71.0707L48.7219 73.6457C48.7128 73.6957 48.6856 73.7388 48.6401 73.7751C48.5947 73.8115 48.547 73.8296 48.4971 73.8296H47.3117ZM46.9302 75.6554C46.8803 75.6554 46.8417 75.6372 46.8144 75.6009C46.7826 75.5645 46.7713 75.5214 46.7804 75.4714L47.0324 74.2861C47.0415 74.2361 47.0688 74.193 47.1142 74.1566C47.1596 74.1203 47.2073 74.1021 47.2572 74.1021H48.4426C48.4925 74.1021 48.5311 74.1203 48.5584 74.1566C48.5856 74.193 48.5947 74.2361 48.5856 74.2861L48.3336 75.4714C48.3245 75.5214 48.2973 75.5645 48.2518 75.6009C48.211 75.6372 48.1655 75.6554 48.1156 75.6554H46.9302Z" fill="#2F8DE4"/>
<path d="M42.1259 75.6554C42.076 75.6554 42.0351 75.6372 42.0033 75.6009C41.9761 75.5645 41.967 75.5214 41.9761 75.4714L42.9162 71.0707C42.9252 71.0207 42.9502 70.9775 42.9911 70.9412C43.0365 70.9049 43.0842 70.8867 43.1342 70.8867H44.2105C44.3013 70.8867 44.3627 70.9072 44.3944 70.948C44.4262 70.9889 44.4467 71.0207 44.4558 71.0434L45.2119 72.9304L45.607 71.0707C45.6161 71.0207 45.6411 70.9775 45.682 70.9412C45.7274 70.9049 45.7751 70.8867 45.825 70.8867H47.0581C47.108 70.8867 47.1466 70.9049 47.1739 70.9412C47.2057 70.9775 47.217 71.0207 47.2079 71.0707L46.2678 75.4714C46.2587 75.5214 46.2315 75.5645 46.1861 75.6009C46.1452 75.6372 46.0998 75.6554 46.0498 75.6554H44.9735C44.8827 75.6554 44.8191 75.6349 44.7827 75.594C44.751 75.5486 44.7305 75.5168 44.7214 75.4987L43.9448 73.7615L43.577 75.4714C43.5679 75.5214 43.5406 75.5645 43.4952 75.6009C43.4543 75.6372 43.4089 75.6554 43.359 75.6554H42.1259Z" fill="#2F8DE4"/>
<path d="M39.3681 75.7252C39.0684 75.7252 38.7846 75.6866 38.5166 75.6094C38.2532 75.5322 38.0238 75.4164 37.8286 75.262C37.6378 75.1075 37.497 74.9168 37.4062 74.6897C37.3199 74.4581 37.3017 74.1901 37.3517 73.8859C37.3835 73.6997 37.4221 73.5021 37.4675 73.2932C37.5129 73.0843 37.5583 72.8822 37.6038 72.6869C37.7536 72.0919 38.0284 71.6333 38.428 71.3108C38.8322 70.9838 39.4022 70.8203 40.1379 70.8203C40.4377 70.8203 40.7193 70.8612 40.9827 70.9429C41.2506 71.0247 41.48 71.145 41.6707 71.304C41.866 71.4629 42.0068 71.6582 42.0931 71.8898C42.1839 72.1215 42.2043 72.3871 42.1544 72.6869C42.1226 72.8822 42.084 73.0843 42.0386 73.2932C41.9932 73.5021 41.9478 73.6997 41.9023 73.8859C41.7479 74.4944 41.4709 74.9531 41.0712 75.262C40.6716 75.5708 40.1039 75.7252 39.3681 75.7252ZM39.518 74.3968C39.6679 74.3968 39.7973 74.3536 39.9063 74.2674C40.0153 74.1765 40.0925 74.0357 40.1379 73.845C40.1879 73.6497 40.2333 73.4567 40.2742 73.2659C40.3151 73.0752 40.3514 72.8867 40.3832 72.7005C40.4195 72.5098 40.3991 72.3713 40.3219 72.285C40.2492 72.1941 40.1402 72.1487 39.9949 72.1487C39.8496 72.1487 39.7224 72.1941 39.6134 72.285C39.5044 72.3713 39.4249 72.5098 39.375 72.7005C39.3295 72.8867 39.2864 73.0752 39.2455 73.2659C39.2047 73.4567 39.166 73.6497 39.1297 73.845C39.0979 74.0357 39.1161 74.1765 39.1842 74.2674C39.2569 74.3536 39.3681 74.3968 39.518 74.3968Z" fill="#2F8DE4"/>
<path d="M34.5166 75.7252C34.2168 75.7252 33.933 75.6866 33.665 75.6094C33.4016 75.5322 33.1723 75.4164 32.977 75.262C32.7863 75.1075 32.6455 74.9168 32.5546 74.6897C32.4683 74.4581 32.4502 74.1901 32.5001 73.8859C32.5319 73.6997 32.5705 73.5021 32.6159 73.2932C32.6614 73.0843 32.7068 72.8822 32.7522 72.6869C32.9021 72.0919 33.1768 71.6333 33.5765 71.3108C33.9807 70.9838 34.5506 70.8203 35.2864 70.8203C35.5861 70.8203 35.8677 70.8612 36.1311 70.9429C36.3991 71.0247 36.6284 71.145 36.8192 71.304C37.0144 71.4629 37.1552 71.6582 37.2415 71.8898C37.3323 72.1215 37.3528 72.3871 37.3028 72.6869C37.271 72.8822 37.2324 73.0843 37.187 73.2932C37.1416 73.5021 37.0962 73.6997 37.0508 73.8859C36.8964 74.4944 36.6193 74.9531 36.2197 75.262C35.82 75.5708 35.2523 75.7252 34.5166 75.7252ZM34.6665 74.3968C34.8163 74.3968 34.9458 74.3536 35.0548 74.2674C35.1638 74.1765 35.241 74.0357 35.2864 73.845C35.3363 73.6497 35.3818 73.4567 35.4226 73.2659C35.4635 73.0752 35.4998 72.8867 35.5316 72.7005C35.568 72.5098 35.5475 72.3713 35.4703 72.285C35.3976 72.1941 35.2886 72.1487 35.1433 72.1487C34.998 72.1487 34.8708 72.1941 34.7618 72.285C34.6528 72.3713 34.5734 72.5098 34.5234 72.7005C34.478 72.8867 34.4348 73.0752 34.394 73.2659C34.3531 73.4567 34.3145 73.6497 34.2782 73.845C34.2464 74.0357 34.2645 74.1765 34.3327 74.2674C34.4053 74.3536 34.5166 74.3968 34.6665 74.3968Z" fill="#2F8DE4"/>
<path d="M29.7921 75.7252C29.2925 75.7252 28.8815 75.6571 28.5591 75.5208C28.2366 75.3846 28.005 75.2052 27.8642 74.9826C27.728 74.7601 27.6826 74.524 27.728 74.2742C27.7371 74.2333 27.7575 74.1992 27.7893 74.172C27.8256 74.1402 27.8642 74.1243 27.9051 74.1243H29.1994C29.2721 74.1243 29.3243 74.1356 29.3561 74.1584C29.3924 74.1765 29.4311 74.2038 29.4719 74.2401C29.5083 74.2719 29.5469 74.3014 29.5877 74.3287C29.6332 74.3514 29.6854 74.3695 29.7444 74.3832C29.8035 74.3922 29.8693 74.3968 29.942 74.3968C30.0964 74.3968 30.2236 74.3809 30.3235 74.3491C30.4234 74.3128 30.4802 74.2651 30.4938 74.206C30.5074 74.1515 30.4915 74.1061 30.4461 74.0698C30.4007 74.0335 30.3167 74.0017 30.194 73.9744C30.0714 73.9426 29.9011 73.9131 29.6831 73.8859C29.3334 73.8359 29.0405 73.7451 28.8043 73.6134C28.5682 73.4771 28.4001 73.2977 28.3002 73.0752C28.2048 72.8527 28.1912 72.5915 28.2593 72.2918C28.3547 71.8285 28.5999 71.4675 28.9951 71.2086C29.3902 70.9497 29.8966 70.8203 30.5142 70.8203C30.823 70.8203 31.1023 70.8657 31.3521 70.9566C31.6065 71.0428 31.8222 71.1587 31.9993 71.304C32.181 71.4448 32.3149 71.5969 32.4012 71.7604C32.4875 71.9239 32.517 72.0806 32.4898 72.2305C32.4852 72.2713 32.4648 72.3077 32.4285 72.3395C32.3921 72.3667 32.3558 72.3803 32.3195 72.3803H30.957C30.8934 72.3803 30.8435 72.3713 30.8071 72.3531C30.7754 72.3349 30.7413 72.3077 30.705 72.2713C30.6868 72.2486 30.6505 72.2237 30.596 72.1964C30.5415 72.1646 30.4665 72.1487 30.3712 72.1487C30.2576 72.1487 30.1713 72.1669 30.1123 72.2032C30.0532 72.235 30.0169 72.2804 30.0033 72.3395C29.9942 72.3803 30.0056 72.4189 30.0373 72.4553C30.0737 72.4916 30.1418 72.5234 30.2417 72.5506C30.3462 72.5779 30.4983 72.6051 30.6981 72.6324C31.1432 72.6869 31.4884 72.7823 31.7336 72.9185C31.9834 73.0548 32.1492 73.2319 32.2309 73.4499C32.3127 73.6633 32.3218 73.9177 32.2582 74.2129C32.1537 74.7079 31.8948 75.0848 31.4816 75.3437C31.0683 75.598 30.5051 75.7252 29.7921 75.7252Z" fill="#2F8DE4"/>
<path d="M49.2334 69.7252C48.7747 69.7252 48.3909 69.6571 48.0821 69.5208C47.7778 69.3846 47.5598 69.1779 47.4281 68.9009C47.2964 68.6239 47.2669 68.2742 47.3395 67.8518C47.3713 67.6656 47.4099 67.4635 47.4553 67.2455C47.5053 67.0275 47.553 66.8209 47.5984 66.6256C47.6983 66.2214 47.8732 65.8876 48.123 65.6242C48.3773 65.3562 48.6884 65.1564 49.0562 65.0247C49.4241 64.8884 49.8306 64.8203 50.2757 64.8203C50.6344 64.8203 50.9478 64.8612 51.2158 64.9429C51.4882 65.0201 51.7108 65.1291 51.8834 65.2699C52.0559 65.4107 52.1763 65.5742 52.2444 65.7604C52.3171 65.9421 52.3352 66.1351 52.2989 66.3395C52.2898 66.3803 52.2671 66.4167 52.2308 66.4485C52.1945 66.4757 52.1559 66.4893 52.115 66.4893H50.6095C50.5595 66.4893 50.5209 66.4825 50.4936 66.4689C50.4664 66.4553 50.4437 66.4371 50.4255 66.4144C50.4164 66.3917 50.3983 66.3599 50.371 66.319C50.3483 66.2736 50.3074 66.235 50.2484 66.2032C50.1939 66.1669 50.1099 66.1487 49.9963 66.1487C49.8283 66.1487 49.6898 66.1919 49.5808 66.2782C49.4763 66.3599 49.4037 66.4871 49.3628 66.6596C49.3174 66.8458 49.2742 67.0366 49.2334 67.2319C49.1925 67.4272 49.1539 67.6225 49.1176 67.8177C49.0812 68.0221 49.1017 68.1697 49.1789 68.2605C49.2561 68.3514 49.3787 68.3968 49.5467 68.3968C49.6603 68.3968 49.7625 68.3809 49.8533 68.3491C49.9487 68.3173 50.0281 68.2651 50.0917 68.1924C50.1598 68.1198 50.2053 68.0267 50.228 67.9131V67.9063H49.9078C49.8578 67.9063 49.8192 67.8881 49.792 67.8518C49.7647 67.8155 49.7556 67.7723 49.7647 67.7224L49.9214 66.9662C49.9305 66.9162 49.9577 66.8731 50.0032 66.8368C50.0486 66.8004 50.0963 66.7823 50.1462 66.7823H52.0196C52.0696 66.7823 52.1082 66.8004 52.1354 66.8368C52.1627 66.8731 52.1718 66.9162 52.1627 66.9662L51.9787 67.8518C51.897 68.2605 51.7244 68.6034 51.461 68.8805C51.2021 69.1575 50.8797 69.3687 50.4936 69.514C50.1122 69.6548 49.6921 69.7252 49.2334 69.7252Z" fill="#2F8DE4"/>
<path d="M42.333 69.6554C42.283 69.6554 42.2421 69.6372 42.2103 69.6009C42.1831 69.5645 42.174 69.5214 42.1831 69.4714L43.1232 65.0707C43.1323 65.0207 43.1573 64.9776 43.1981 64.9412C43.2435 64.9049 43.2912 64.8867 43.3412 64.8867H44.4175C44.5084 64.8867 44.5697 64.9072 44.6015 64.948C44.6333 64.9889 44.6537 65.0207 44.6628 65.0434L45.419 66.9304L45.8141 65.0707C45.8232 65.0207 45.8481 64.9776 45.889 64.9412C45.9344 64.9049 45.9821 64.8867 46.0321 64.8867H47.2651C47.3151 64.8867 47.3537 64.9049 47.3809 64.9412C47.4127 64.9776 47.4241 65.0207 47.415 65.0707L46.4749 69.4714C46.4658 69.5214 46.4385 69.5645 46.3931 69.6009C46.3522 69.6372 46.3068 69.6554 46.2569 69.6554H45.1805C45.0897 69.6554 45.0261 69.6349 44.9898 69.594C44.958 69.5486 44.9375 69.5168 44.9285 69.4987L44.1519 67.7615L43.784 69.4714C43.7749 69.5214 43.7477 69.5645 43.7022 69.6009C43.6614 69.6372 43.616 69.6554 43.566 69.6554H42.333Z" fill="#2F8DE4"/>
<path d="M40.0322 69.6554C39.9822 69.6554 39.9414 69.6372 39.9096 69.6009C39.8823 69.5645 39.8732 69.5214 39.8823 69.4714L40.8224 65.0707C40.8315 65.0207 40.8565 64.9776 40.8973 64.9412C40.9428 64.9049 40.9905 64.8867 41.0404 64.8867H42.4301C42.4801 64.8867 42.5187 64.9049 42.5459 64.9412C42.5777 64.9776 42.5891 65.0207 42.58 65.0707L41.6399 69.4714C41.6308 69.5214 41.6036 69.5645 41.5581 69.6009C41.5173 69.6372 41.4719 69.6554 41.4219 69.6554H40.0322Z" fill="#2F8DE4"/>
<path d="M34.4111 69.6554C34.3611 69.6554 34.3203 69.6372 34.2885 69.6009C34.2612 69.5645 34.2521 69.5214 34.2612 69.4714L35.2013 65.0707C35.2104 65.0207 35.2354 64.9776 35.2763 64.9412C35.3217 64.9049 35.3694 64.8867 35.4193 64.8867H36.4957C36.5865 64.8867 36.6501 64.9117 36.6864 64.9617C36.7227 65.0116 36.7455 65.0479 36.7545 65.0707L37.3949 66.7056L38.7301 65.0707C38.7483 65.0479 38.7846 65.0116 38.8391 64.9617C38.8936 64.9117 38.9663 64.8867 39.0571 64.8867H40.1335C40.1834 64.8867 40.222 64.9049 40.2493 64.9412C40.2811 64.9776 40.2924 65.0207 40.2833 65.0707L39.3432 69.4714C39.3341 69.5214 39.3069 69.5645 39.2615 69.6009C39.2206 69.6372 39.1752 69.6554 39.1252 69.6554H37.8922C37.8422 69.6554 37.8014 69.6372 37.7696 69.6009C37.7423 69.5645 37.7332 69.5214 37.7423 69.4714L38.1374 67.6048L37.538 68.3406C37.5062 68.3769 37.4653 68.4155 37.4153 68.4564C37.3699 68.4927 37.3131 68.5109 37.245 68.5109H36.7682C36.7 68.5109 36.6501 68.4927 36.6183 68.4564C36.591 68.4155 36.5706 68.3769 36.557 68.3406L36.2572 67.6048L35.8621 69.4714C35.853 69.5214 35.8258 69.5645 35.7804 69.6009C35.7395 69.6372 35.6941 69.6554 35.6441 69.6554H34.4111Z" fill="#2F8DE4"/>
<path d="M31.6494 69.7252C31.3497 69.7252 31.0658 69.6866 30.7979 69.6094C30.5344 69.5322 30.3051 69.4164 30.1098 69.262C29.9191 69.1075 29.7783 68.9168 29.6874 68.6897C29.6012 68.4581 29.583 68.1901 29.6329 67.8859C29.6647 67.6997 29.7033 67.5021 29.7488 67.2932C29.7942 67.0843 29.8396 66.8822 29.885 66.6869C30.0349 66.0919 30.3096 65.6333 30.7093 65.3108C31.1135 64.9838 31.6835 64.8203 32.4192 64.8203C32.7189 64.8203 33.0005 64.8612 33.2639 64.9429C33.5319 65.0247 33.7612 65.145 33.952 65.304C34.1473 65.4629 34.288 65.6582 34.3743 65.8898C34.4652 66.1215 34.4856 66.3871 34.4356 66.6869C34.4039 66.8822 34.3652 67.0843 34.3198 67.2932C34.2744 67.5021 34.229 67.6997 34.1836 67.8859C34.0292 68.4944 33.7521 68.9531 33.3525 69.262C32.9528 69.5708 32.3851 69.7252 31.6494 69.7252ZM31.7993 68.3968C31.9491 68.3968 32.0786 68.3536 32.1876 68.2674C32.2966 68.1765 32.3738 68.0357 32.4192 67.845C32.4691 67.6497 32.5146 67.4567 32.5554 67.2659C32.5963 67.0752 32.6326 66.8867 32.6644 66.7005C32.7008 66.5098 32.6803 66.3713 32.6031 66.285C32.5305 66.1941 32.4215 66.1487 32.2761 66.1487C32.1308 66.1487 32.0036 66.1941 31.8946 66.285C31.7856 66.3713 31.7062 66.5098 31.6562 66.7005C31.6108 66.8867 31.5676 67.0752 31.5268 67.2659C31.4859 67.4567 31.4473 67.6497 31.411 67.845C31.3792 68.0357 31.3973 68.1765 31.4655 68.2674C31.5381 68.3536 31.6494 68.3968 31.7993 68.3968Z" fill="#2F8DE4"/>
<path d="M26.8802 69.7252C26.5714 69.7252 26.2807 69.6911 26.0082 69.623C25.7403 69.5503 25.5086 69.4391 25.3133 69.2892C25.1226 69.1393 24.9841 68.9486 24.8978 68.717C24.816 68.4853 24.8024 68.206 24.8569 67.8791C24.8887 67.6928 24.9273 67.493 24.9727 67.2796C25.0227 67.0661 25.0704 66.8617 25.1158 66.6665C25.2248 66.2441 25.3928 65.8967 25.6199 65.6242C25.847 65.3517 26.1308 65.1496 26.4714 65.0179C26.8121 64.8862 27.2049 64.8203 27.65 64.8203C27.9225 64.8203 28.1927 64.8544 28.4606 64.9225C28.7331 64.9861 28.9738 65.0883 29.1828 65.2291C29.3917 65.3698 29.5483 65.5515 29.6528 65.774C29.7573 65.992 29.7777 66.2554 29.7141 66.5643C29.705 66.6051 29.6823 66.6415 29.646 66.6733C29.6097 66.7005 29.5711 66.7141 29.5302 66.7141H28.1405C28.0678 66.7141 28.0178 66.7005 27.9906 66.6733C27.9633 66.6415 27.9429 66.5892 27.9293 66.5166C27.9111 66.3713 27.8634 66.2736 27.7862 66.2237C27.7136 66.1737 27.6182 66.1487 27.5001 66.1487C27.3502 66.1487 27.2208 66.1896 27.1118 66.2713C27.0073 66.3485 26.9301 66.4916 26.8802 66.7005C26.7848 67.0729 26.7031 67.4544 26.6349 67.845C26.5986 68.0539 26.6168 68.1992 26.6894 68.281C26.7621 68.3582 26.8734 68.3968 27.0232 68.3968C27.1413 68.3968 27.2503 68.3695 27.3502 68.315C27.4501 68.2605 27.5364 68.1652 27.6091 68.0289C27.65 67.9517 27.6908 67.8995 27.7317 67.8722C27.7726 67.845 27.8294 67.8314 27.902 67.8314H29.2917C29.3326 67.8314 29.3644 67.8473 29.3871 67.8791C29.4144 67.9063 29.4235 67.9404 29.4144 67.9812C29.3417 68.2901 29.2259 68.5557 29.0669 68.7783C28.9125 68.9963 28.7218 69.1757 28.4947 69.3165C28.2722 69.4572 28.0247 69.5617 27.7522 69.6298C27.4797 69.6934 27.189 69.7252 26.8802 69.7252Z" fill="#2F8DE4"/>
<path d="M47.9196 52.2182C47.7472 52.2182 47.6061 52.1555 47.4964 52.0301C47.4024 51.9047 47.371 51.7558 47.4024 51.5834L50.6467 36.3965C50.678 36.2241 50.7642 36.0752 50.9053 35.9498C51.062 35.8244 51.2265 35.7617 51.399 35.7617H57.6994C58.6868 35.7617 59.635 35.9028 60.544 36.1849C61.4531 36.467 62.2445 36.8823 62.9185 37.4309C63.6081 37.9638 64.1174 38.6377 64.4466 39.4527C64.7757 40.252 64.8462 41.1767 64.6582 42.2268C64.5484 42.9007 64.4387 43.4963 64.329 44.0135C64.2193 44.515 64.0783 45.087 63.9059 45.7296C63.5297 47.2029 62.9812 48.4254 62.2602 49.3971C61.5393 50.3531 60.6067 51.0662 59.4626 51.5364C58.3342 51.9909 56.9393 52.2182 55.278 52.2182H47.9196ZM54.126 47.6339H55.6541C55.9989 47.6339 56.3202 47.5712 56.618 47.4458C56.9315 47.3048 57.1979 47.0932 57.4173 46.8111C57.6524 46.5289 57.8248 46.1685 57.9345 45.7296C58.0599 45.2751 58.1618 44.8676 58.2401 44.5072C58.3342 44.1467 58.4125 43.7862 58.4752 43.4257C58.5536 43.0496 58.6241 42.6499 58.6868 42.2268C58.7965 41.5685 58.6868 41.0905 58.3577 40.7927C58.0442 40.4949 57.6211 40.346 57.0882 40.346H55.6776L54.126 47.6339Z" fill="#1747A5"/>
<path d="M31.2438 52.2182C31.0714 52.2182 30.9303 52.1555 30.8206 52.0301C30.7266 51.9047 30.6953 51.7558 30.7266 51.5834L33.9709 36.3965C34.0022 36.2241 34.0884 36.0752 34.2295 35.9498C34.3862 35.8244 34.5508 35.7617 34.7232 35.7617H38.4376C38.7511 35.7617 38.9627 35.8322 39.0724 35.9733C39.1821 36.1144 39.2526 36.2241 39.284 36.3024L41.8935 42.8145L43.257 36.3965C43.2884 36.2241 43.3746 36.0752 43.5156 35.9498C43.6724 35.8244 43.8369 35.7617 44.0093 35.7617H48.2645C48.4369 35.7617 48.5701 35.8244 48.6641 35.9498C48.7739 36.0752 48.813 36.2241 48.7817 36.3965L45.5374 51.5834C45.5061 51.7558 45.412 51.9047 45.2553 52.0301C45.1143 52.1555 44.9575 52.2182 44.7851 52.2182H41.0707C40.7572 52.2182 40.5378 52.1477 40.4124 52.0066C40.3027 51.8499 40.2322 51.7402 40.2008 51.6775L37.5208 45.6826L36.2513 51.5834C36.2199 51.7558 36.1259 51.9047 35.9692 52.0301C35.8281 52.1555 35.6714 52.2182 35.499 52.2182H31.2438Z" fill="#1747A5"/>
<path d="M15.2554 52.2192C15.083 52.2192 14.9498 52.1565 14.8558 52.0311C14.7618 51.9057 14.7304 51.7568 14.7618 51.5844L15.279 49.1395C15.3103 49.0454 15.373 48.8652 15.467 48.5988C15.5767 48.3167 15.804 48.0737 16.1488 47.87L16.4309 47.6819C18.3273 46.4908 19.9103 45.4877 21.1798 44.6727C22.4649 43.8577 23.4523 43.1603 24.1419 42.5804C24.8315 41.9848 25.2234 41.4598 25.3174 41.0053C25.3644 40.7859 25.3644 40.5743 25.3174 40.3705C25.2861 40.1668 25.0666 40.0649 24.6591 40.0649C24.3457 40.0649 24.0871 40.1433 23.8833 40.3C23.6796 40.4411 23.515 40.6056 23.3896 40.7937C23.2799 40.9818 23.1859 41.1385 23.1075 41.2639C22.9822 41.4833 22.8254 41.6322 22.6373 41.7106C22.4649 41.7733 22.269 41.8046 22.0496 41.8046H17.6299C17.4888 41.8046 17.3791 41.7576 17.3008 41.6635C17.2224 41.5538 17.1989 41.4284 17.2302 41.2874C17.434 40.394 17.7944 39.5947 18.3116 38.8895C18.8289 38.1685 19.4636 37.5494 20.2159 37.0322C20.9682 36.515 21.8067 36.1232 22.7314 35.8568C23.6561 35.5746 24.62 35.4336 25.623 35.4336C27.0492 35.4336 28.2404 35.6452 29.1964 36.0683C30.1681 36.4758 30.8577 37.0714 31.2652 37.855C31.6884 38.6387 31.7746 39.5869 31.5238 40.6997C31.3514 41.5617 30.9753 42.361 30.3954 43.0976C29.8155 43.8342 29.071 44.5395 28.162 45.2134C27.253 45.8717 26.2186 46.5535 25.0588 47.2587L24.8707 47.3763H29.8312C30.0036 47.3763 30.1368 47.439 30.2308 47.5644C30.3249 47.6897 30.3562 47.8386 30.3249 48.011L29.5726 51.5844C29.5412 51.7568 29.4472 51.9057 29.2905 52.0311C29.1337 52.1565 28.9692 52.2192 28.7968 52.2192H15.2554Z" fill="#1747A5"/>
<path d="M54.0303 61.8877C53.9415 61.8877 53.8688 61.8554 53.8123 61.7908C53.7639 61.7263 53.7477 61.6496 53.7639 61.5607L55.4352 53.7371C55.4513 53.6483 55.4957 53.5716 55.5684 53.507C55.6491 53.4425 55.7339 53.4102 55.8227 53.4102H57.7362C57.8977 53.4102 58.0067 53.4465 58.0632 53.5192C58.1197 53.5918 58.1561 53.6483 58.1722 53.6887L59.5165 57.0434L60.2189 53.7371C60.2351 53.6483 60.2795 53.5716 60.3522 53.507C60.4329 53.4425 60.5177 53.4102 60.6065 53.4102H62.7985C62.8873 53.4102 62.956 53.4425 63.0044 53.507C63.0609 53.5716 63.0811 53.6483 63.065 53.7371L61.3937 61.5607C61.3775 61.6496 61.3291 61.7263 61.2484 61.7908C61.1757 61.8554 61.0949 61.8877 61.0061 61.8877H59.0926C58.9311 61.8877 58.8181 61.8514 58.7535 61.7787C58.697 61.698 58.6607 61.6415 58.6445 61.6092L57.2639 58.5209L56.6099 61.5607C56.5938 61.6496 56.5453 61.7263 56.4646 61.7908C56.3919 61.8554 56.3112 61.8877 56.2224 61.8877H54.0303Z" fill="#1747A5"/>
<path d="M49.1258 62.0089C48.593 62.0089 48.0883 61.9402 47.612 61.803C47.1437 61.6657 46.736 61.4598 46.3888 61.1853C46.0497 60.9108 45.7994 60.5717 45.6379 60.168C45.4845 59.7562 45.4522 59.2799 45.541 58.7389C45.5976 58.4079 45.6662 58.0567 45.7469 57.6853C45.8277 57.3139 45.9084 56.9546 45.9891 56.6074C46.2556 55.5497 46.744 54.7343 47.4545 54.161C48.1731 53.5797 49.1864 53.2891 50.4944 53.2891C51.0272 53.2891 51.5278 53.3617 51.9961 53.5071C52.4725 53.6524 52.8802 53.8663 53.2193 54.1489C53.5665 54.4315 53.8168 54.7787 53.9702 55.1905C54.1316 55.6022 54.168 56.0746 54.0792 56.6074C54.0226 56.9546 53.954 57.3139 53.8733 57.6853C53.7925 58.0567 53.7118 58.4079 53.6311 58.7389C53.3565 59.8208 52.864 60.6363 52.1535 61.1853C51.443 61.7343 50.4338 62.0089 49.1258 62.0089ZM49.3923 59.6472C49.6587 59.6472 49.8888 59.5705 50.0826 59.4171C50.2764 59.2557 50.4136 59.0054 50.4944 58.6663C50.5832 58.3191 50.6639 57.9759 50.7366 57.6368C50.8092 57.2977 50.8738 56.9627 50.9304 56.6316C50.9949 56.2925 50.9586 56.0463 50.8214 55.8929C50.6922 55.7314 50.4984 55.6507 50.24 55.6507C49.9817 55.6507 49.7556 55.7314 49.5618 55.8929C49.3681 56.0463 49.2268 56.2925 49.1379 56.6316C49.0572 56.9627 48.9805 57.2977 48.9078 57.6368C48.8352 57.9759 48.7665 58.3191 48.702 58.6663C48.6454 59.0054 48.6777 59.2557 48.7988 59.4171C48.928 59.5705 49.1258 59.6472 49.3923 59.6472Z" fill="#1747A5"/>
<path d="M41.3233 61.8877C41.2345 61.8877 41.1618 61.8554 41.1053 61.7908C41.0568 61.7263 41.0407 61.6496 41.0568 61.5607L42.7281 53.7371C42.7443 53.6483 42.7887 53.5716 42.8613 53.507C42.9421 53.4425 43.0269 53.4102 43.1157 53.4102H45.5863C45.6751 53.4102 45.7437 53.4425 45.7922 53.507C45.8487 53.5716 45.8689 53.6483 45.8527 53.7371L44.1814 61.5607C44.1653 61.6496 44.1168 61.7263 44.0361 61.7908C43.9634 61.8554 43.8827 61.8877 43.7939 61.8877H41.3233Z" fill="#1747A5"/>
<path d="M35.4132 61.8877C35.3244 61.8877 35.2518 61.8554 35.1953 61.7908C35.1468 61.7263 35.1307 61.6496 35.1468 61.5607L36.3337 56.014H34.3233C34.2345 56.014 34.1618 55.9817 34.1053 55.9171C34.0568 55.8525 34.0407 55.7758 34.0568 55.687L34.4807 53.7371C34.4969 53.6483 34.5413 53.5716 34.6139 53.507C34.6947 53.4425 34.7794 53.4102 34.8683 53.4102H41.9652C42.054 53.4102 42.1226 53.4425 42.1711 53.507C42.2276 53.5716 42.2478 53.6483 42.2316 53.7371L41.8078 55.687C41.7916 55.7758 41.7432 55.8525 41.6624 55.9171C41.5898 55.9817 41.509 56.014 41.4202 56.014H39.4098L38.223 61.5607C38.2068 61.6496 38.1584 61.7263 38.0776 61.7908C38.005 61.8554 37.9242 61.8877 37.8354 61.8877H35.4132Z" fill="#1747A5"/>
<path d="M29.4522 61.8877C29.3634 61.8877 29.2907 61.8554 29.2342 61.7908C29.1857 61.7263 29.1696 61.6496 29.1857 61.5607L30.857 53.7371C30.8732 53.6483 30.9176 53.5716 30.9903 53.507C31.071 53.4425 31.1558 53.4102 31.2446 53.4102H33.7152C33.804 53.4102 33.8726 53.4425 33.9211 53.507C33.9776 53.5716 33.9978 53.6483 33.9816 53.7371L32.3103 61.5607C32.2942 61.6496 32.2457 61.7263 32.165 61.7908C32.0923 61.8554 32.0116 61.8877 31.9228 61.8877H29.4522Z" fill="#1747A5"/>
<path d="M20.8623 61.8877C20.7735 61.8877 20.7009 61.8554 20.6443 61.7908C20.5959 61.7263 20.5798 61.6496 20.5959 61.5607L22.2672 53.7371C22.2833 53.6483 22.3277 53.5716 22.4004 53.507C22.4811 53.4425 22.5659 53.4102 22.6547 53.4102H25.9004C26.4091 53.4102 26.8976 53.4828 27.3658 53.6282C27.8341 53.7735 28.2419 53.9874 28.589 54.27C28.9443 54.5445 29.2067 54.8917 29.3762 55.3116C29.5458 55.7233 29.5821 56.1997 29.4852 56.7406C29.4287 57.0878 29.3722 57.3946 29.3157 57.6611C29.2592 57.9194 29.1865 58.2141 29.0977 58.5451C28.9039 59.3041 28.6213 59.9339 28.2499 60.4344C27.8785 60.9269 27.3981 61.2943 26.8087 61.5365C26.2274 61.7707 25.5089 61.8877 24.653 61.8877H20.8623ZM24.0596 59.5261H24.8468C25.0244 59.5261 25.1899 59.4938 25.3433 59.4292C25.5048 59.3566 25.6421 59.2476 25.7551 59.1022C25.8762 58.9569 25.965 58.7712 26.0215 58.5451C26.0861 58.311 26.1386 58.1011 26.179 57.9154C26.2274 57.7297 26.2678 57.544 26.3001 57.3583C26.3405 57.1645 26.3768 56.9586 26.4091 56.7406C26.4656 56.4015 26.4091 56.1553 26.2395 56.0019C26.0781 55.8485 25.8601 55.7718 25.5856 55.7718H24.8589L24.0596 59.5261Z" fill="#1747A5"/>
<path d="M13.1592 61.8877C13.0704 61.8877 12.9977 61.8554 12.9412 61.7908C12.8928 61.7263 12.8766 61.6496 12.8928 61.5607L14.5641 53.7371C14.5802 53.6483 14.6246 53.5716 14.6973 53.507C14.778 53.4425 14.8628 53.4102 14.9516 53.4102H21.1645C21.2533 53.4102 21.3219 53.4425 21.3703 53.507C21.4269 53.5716 21.447 53.6483 21.4309 53.7371L21.0676 55.4448C21.0514 55.5336 21.003 55.6103 20.9222 55.6749C20.8415 55.7395 20.7567 55.7718 20.6679 55.7718H17.0347L16.8651 56.5347H20.2319C20.3207 56.5347 20.3894 56.567 20.4378 56.6316C20.4943 56.6962 20.5145 56.7729 20.4984 56.8617L20.1593 58.4361C20.1431 58.525 20.0947 58.6017 20.0139 58.6663C19.9332 58.7308 19.8484 58.7631 19.7596 58.7631H16.3928L16.2354 59.5261H19.9655C20.0543 59.5261 20.1229 59.5584 20.1714 59.623C20.2198 59.6876 20.236 59.7643 20.2198 59.8531L19.8565 61.5607C19.8403 61.6496 19.7919 61.7263 19.7112 61.7908C19.6385 61.8554 19.5578 61.8877 19.4689 61.8877H13.1592Z" fill="#1747A5"/>
<path d="M44.1233 6.29687L46.7734 6.29688L46.7734 7.62194L44.1233 7.62194L44.1233 6.29687Z" fill="#2F8DE4"/>
<path d="M38.8234 10.2695L40.1484 10.2695L40.1484 14.2447L38.8234 14.2447L38.8234 10.2695Z" fill="#2F8DE4"/>
<path d="M40.1481 19.5481L40.1481 14.2478L41.4732 14.2478L41.4732 11.5977L42.7982 11.5977L42.7982 15.5729L41.4732 15.5729L41.4732 18.223L44.1233 18.223L44.1233 15.5729L45.4484 15.5729L45.4484 18.223L46.7734 18.223L46.7734 19.5481L40.1481 19.5481Z" fill="#2F8DE4"/>
<path d="M40.1459 22.1953L44.1211 22.1953L44.1211 23.5204L40.1459 23.5204L40.1459 22.1953Z" fill="#2F8DE4"/>
<path d="M46.7726 19.5469L48.0977 19.5469L48.0977 26.1722L46.7726 26.1722L46.7726 19.5469Z" fill="#2F8DE4"/>
<path d="M45.4484 26.1719L46.7734 26.1719L46.7734 28.822L45.4484 28.822L45.4484 26.1719Z" fill="#2F8DE4"/>
<path d="M44.1242 28.8203L45.4492 28.8203L45.4492 30.1454L44.1242 30.1454L44.1242 28.8203Z" fill="#2F8DE4"/>
<path d="M42.7999 30.1484L44.125 30.1484L44.125 31.4735L42.7999 31.4735L42.7999 30.1484Z" fill="#2F8DE4"/>
<path d="M37.4952 23.5234L38.8203 23.5234L38.8203 24.8485L37.4952 24.8485L37.4952 23.5234Z" fill="#2F8DE4"/>
<path d="M38.8234 24.8477L40.1484 24.8477L40.1484 28.8229L38.8234 28.8229L38.8234 24.8477Z" fill="#2F8DE4"/>
<path d="M36.1732 14.2447L37.4983 14.2447L37.4983 20.8701L38.8234 20.8701L38.8234 19.545L40.1484 19.545L40.1484 22.1951L37.4983 22.1951L37.4983 23.5202L36.1732 23.5202L36.1732 15.5698L33.5231 15.5698L33.5231 14.2447L34.8482 14.2447L34.8482 10.2695L36.1732 10.2695L36.1732 14.2447Z" fill="#2F8DE4"/>
<path d="M33.5226 6.29297L34.8477 6.29297L34.8477 10.2682L33.5226 10.2682L33.5226 6.29297Z" fill="#2F8DE4"/>
<path d="M34.846 4.96875L37.4961 4.96875L37.4961 6.29382L34.846 6.29382L34.846 4.96875Z" fill="#2F8DE4"/>
<path d="M29.5491 16.8945L29.5491 23.5199L32.1992 23.5199L32.1992 24.8449L29.5491 24.8449L29.5491 27.4951L28.224 27.4951L28.224 16.8945L29.5491 16.8945Z" fill="#2F8DE4"/>
<path d="M29.546 27.4961L30.8711 27.4961L30.8711 28.8212L29.546 28.8212L29.546 27.4961Z" fill="#2F8DE4"/>
<path d="M30.8742 28.8203L32.1992 28.8203L32.1992 30.1454L30.8742 30.1454L30.8742 28.8203Z" fill="#2F8DE4"/>
<path d="M32.1945 30.1484L33.5195 30.1484L33.5195 31.4735L32.1945 31.4735L32.1945 30.1484Z" fill="#2F8DE4"/>
<path d="M33.5234 23.5246L32.1984 23.5246L32.1984 16.8993L29.5482 16.8993L29.5482 15.5742L33.5234 15.5742L33.5234 23.5246Z" fill="#2F8DE4"/>
<path d="M33.5217 23.5234L36.1719 23.5234L36.1719 24.8485L33.5217 24.8485L33.5217 23.5234Z" fill="#2F8DE4"/>
<path d="M45.4484 11.5977L46.7734 11.5977L46.7734 15.5729L45.4484 15.5729L45.4484 11.5977Z" fill="#2F8DE4"/>
<path d="M37.4992 6.29297L38.8242 6.29297L38.8242 10.2682L37.4992 10.2682L37.4992 6.29297Z" fill="#2F8DE4"/>
<path d="M46.7726 7.62109L48.0977 7.62109L48.0977 11.5963L46.7726 11.5963L46.7726 7.62109Z" fill="#2F8DE4"/>
<path d="M42.7999 7.62109L44.125 7.62109L44.125 11.5963L42.7999 11.5963L42.7999 7.62109Z" fill="#2F8DE4"/>
</g>
<defs>
<clipPath id="clip0_4869_42692">
<rect width="74.1252" height="87.4983" fill="white"/>
</clipPath>
</defs>
</svg>
