<svg width="150" height="150" viewBox="0 0 150 150" fill="none" xmlns="http://www.w3.org/2000/svg">
<g clip-path="url(#clip0_4870_43113)">
<path d="M150 75C150 116.421 116.421 150 75 150C33.5786 150 -5.08894e-06 116.421 -3.27835e-06 75C-1.46777e-06 33.5786 33.5786 1.46777e-06 75 3.27835e-06C116.421 5.08894e-06 150 33.5786 150 75Z" fill="white"/>
<path d="M104.894 37.1248C104.804 37.0371 104.758 36.9286 104.756 36.7993C104.754 36.67 104.797 36.5604 104.885 36.4703L112.608 28.5337C112.696 28.4436 112.804 28.3977 112.934 28.396C113.063 28.3942 113.173 28.4372 113.263 28.5248L116.801 31.9681C117.571 32.7173 118.131 33.5179 118.482 34.3698C118.841 35.2135 118.958 36.0606 118.832 36.9109C118.715 37.7692 118.309 38.5788 117.617 39.3399C117.29 39.708 116.996 40.0272 116.732 40.2975C116.477 40.5596 116.178 40.8506 115.835 41.1704C115.053 41.9085 114.243 42.364 113.405 42.537C112.575 42.7019 111.741 42.6162 110.904 42.2801C110.083 41.9438 109.28 41.393 108.493 40.6278L104.894 37.1248ZM109.965 37.3952L110.763 38.1723C110.944 38.3477 111.135 38.4704 111.338 38.5403C111.557 38.6101 111.784 38.6151 112.017 38.5553C112.251 38.4956 112.483 38.355 112.715 38.1337C112.962 37.9121 113.178 37.7071 113.361 37.5187C113.552 37.3383 113.736 37.1499 113.911 36.9536C114.102 36.757 114.297 36.5402 114.496 36.3031C114.814 35.9432 114.947 35.5858 114.894 35.2309C114.848 34.884 114.687 34.575 114.408 34.304L113.671 33.5867L109.965 37.3952Z" fill="#2F8DE4"/>
<path d="M96.1591 31.5785C96.0508 31.5145 95.9806 31.4199 95.9484 31.2947C95.9162 31.1695 95.9321 31.0528 95.996 30.9445L101.63 21.4103C101.694 21.3021 101.788 21.2319 101.914 21.1997C102.039 21.1675 102.156 21.1834 102.264 21.2473L109.835 25.7212C109.943 25.7851 110.013 25.8797 110.046 26.0049C110.078 26.1302 110.062 26.2469 109.998 26.3551L108.768 28.4361C108.704 28.5443 108.61 28.6146 108.485 28.6468C108.359 28.679 108.243 28.6631 108.134 28.5991L103.707 25.9828L103.157 26.9127L107.26 29.3371C107.369 29.401 107.439 29.4956 107.471 29.6208C107.503 29.7461 107.487 29.8628 107.423 29.971L106.29 31.8897C106.226 31.9979 106.131 32.0681 106.006 32.1003C105.881 32.1325 105.764 32.1167 105.656 32.0527L101.553 29.6283L101.003 30.5581L105.549 33.2441C105.657 33.3081 105.727 33.4027 105.76 33.5279C105.792 33.6531 105.776 33.7699 105.712 33.8781L104.482 35.9591C104.418 36.0673 104.324 36.1375 104.199 36.1697C104.073 36.2019 103.957 36.1861 103.848 36.1221L96.1591 31.5785Z" fill="#2F8DE4"/>
<path d="M91.3314 29.4668C91.2141 29.4215 91.1293 29.3398 91.0769 29.2216C91.0245 29.1034 91.021 28.9856 91.0663 28.8683L95.0541 18.537C95.0994 18.4197 95.1811 18.3349 95.2994 18.2825C95.4176 18.2301 95.5353 18.2266 95.6526 18.2719L98.9151 19.5312C99.0324 19.5765 99.1173 19.6582 99.1696 19.7764C99.222 19.8946 99.2255 20.0124 99.1803 20.1297L95.1924 30.461C95.1471 30.5783 95.0654 30.6631 94.9472 30.7155C94.8289 30.7679 94.7112 30.7714 94.5939 30.7261L91.3314 29.4668Z" fill="#2F8DE4"/>
<path d="M81.5853 27.162C81.4623 27.1358 81.3657 27.0684 81.2954 26.9599C81.2251 26.8514 81.203 26.7357 81.2293 26.6127L83.5415 15.7825C83.5677 15.6596 83.6351 15.5629 83.7436 15.4926C83.8521 15.4223 83.9678 15.4002 84.0908 15.4265L92.5404 17.2305C92.6633 17.2567 92.7599 17.3241 92.8303 17.4326C92.9006 17.5411 92.9226 17.6568 92.8964 17.7798L92.3523 20.328C92.3261 20.451 92.2587 20.5476 92.1502 20.6179C92.0417 20.6883 91.926 20.7103 91.803 20.6841L87.0082 19.6604L86.7434 20.901L91.2029 21.8531C91.3258 21.8793 91.4224 21.9467 91.4928 22.0552C91.5631 22.1637 91.5851 22.2794 91.5589 22.4024L91.0184 24.9339C90.9922 25.0568 90.9248 25.1535 90.8163 25.2238C90.7078 25.2941 90.592 25.3162 90.4691 25.2899L86.0096 24.3378L85.3367 27.4896C85.3105 27.6126 85.2431 27.7092 85.1346 27.7795C85.0261 27.8499 84.9103 27.8719 84.7874 27.8457L81.5853 27.162Z" fill="#2F8DE4"/>
<path d="M76.3412 26.6704C76.2157 26.664 76.1096 26.6128 76.0229 26.5168C75.9363 26.4208 75.8962 26.31 75.9026 26.1845L76.469 15.1247C76.4754 14.9991 76.5266 14.893 76.6226 14.8064C76.7186 14.7198 76.8294 14.6797 76.9549 14.6861L80.4475 14.865C80.573 14.8714 80.6791 14.9226 80.7658 15.0186C80.8524 15.1146 80.8925 15.2253 80.8861 15.3509L80.3197 26.4107C80.3133 26.5362 80.2621 26.6423 80.1661 26.7289C80.0701 26.8156 79.9593 26.8557 79.8338 26.8492L76.3412 26.6704Z" fill="#2F8DE4"/>
<path d="M68.542 27.345C68.4172 27.3597 68.304 27.3269 68.2026 27.2467C68.1011 27.1665 68.0431 27.064 68.0285 26.9392L67.1153 19.141L64.2889 19.472C64.164 19.4866 64.0509 19.4538 63.9494 19.3737C63.848 19.2935 63.79 19.191 63.7753 19.0661L63.4543 16.3249C63.4397 16.2 63.4725 16.0868 63.5526 15.9854C63.6328 15.884 63.7353 15.8259 63.8602 15.8113L73.8377 14.6429C73.9626 14.6283 74.0757 14.6611 74.1772 14.7412C74.2786 14.8214 74.3367 14.9239 74.3513 15.0488L74.6723 17.7901C74.6869 17.9149 74.6541 18.0281 74.574 18.1295C74.4938 18.231 74.3913 18.289 74.2664 18.3036L71.44 18.6346L72.3532 26.4327C72.3678 26.5576 72.335 26.6707 72.2549 26.7722C72.1747 26.8736 72.0722 26.9317 71.9473 26.9463L68.542 27.345Z" fill="#2F8DE4"/>
<path d="M59.6767 29.7279C58.622 30.1048 57.6388 30.2741 56.727 30.2359C55.826 30.1938 55.0288 29.9326 54.3352 29.4523C53.6486 28.9573 53.1126 28.2386 52.7273 27.2962C52.5588 26.8588 52.3861 26.3926 52.2092 25.8975C52.0323 25.4025 51.8665 24.9217 51.7119 24.4551C51.4165 23.4926 51.3775 22.6024 51.5949 21.7844C51.8123 20.9664 52.2576 20.2429 52.9309 19.6139C53.6042 18.9849 54.4682 18.4819 55.5229 18.105C56.5776 17.7281 57.5646 17.5695 58.4841 17.6293C59.4035 17.689 60.2066 17.9664 60.8932 18.4613C61.5906 18.9524 62.1246 19.6657 62.4954 20.6012C62.6823 21.0563 62.8642 21.5314 63.0411 22.0264C63.218 22.5215 63.3746 22.9935 63.5108 23.4424C63.81 24.4156 63.8456 25.3131 63.6174 26.135C63.3962 26.9422 62.9451 27.6496 62.2641 28.2571C61.5938 28.8607 60.7314 29.351 59.6767 29.7279ZM58.5517 26.58C58.9069 26.4531 59.1555 26.2489 59.2977 25.9675C59.436 25.6754 59.4298 25.3014 59.279 24.8455C59.1351 24.3751 58.9824 23.9138 58.8209 23.4618C58.6593 23.0098 58.489 22.5671 58.3098 22.1335C58.1913 21.836 58.0436 21.6097 57.8668 21.4544C57.7007 21.2953 57.5162 21.2035 57.3132 21.1789C57.1064 21.1436 56.8846 21.1682 56.6479 21.2529C56.4219 21.3336 56.2347 21.4551 56.0864 21.6174C55.9449 21.765 55.855 21.9549 55.8167 22.1871C55.789 22.4154 55.8237 22.6822 55.9206 22.9874C56.0675 23.4324 56.2218 23.881 56.3833 24.333C56.5448 24.785 56.7137 25.2404 56.8898 25.6994C57.0729 26.1437 57.3051 26.4369 57.5865 26.5791C57.8748 26.7066 58.1966 26.7069 58.5517 26.58Z" fill="#2F8DE4"/>
<path d="M45.1136 37.3675C45.0089 37.4372 44.8932 37.4592 44.7664 37.4337C44.6397 37.4082 44.5415 37.3432 44.4718 37.2385L38.3385 28.0178C38.2688 27.9131 38.2468 27.7974 38.2722 27.6706C38.2977 27.5439 38.3628 27.4457 38.4675 27.3761L40.7227 25.8759C40.913 25.7493 41.0795 25.7004 41.2221 25.7291C41.3647 25.7577 41.4661 25.7864 41.5263 25.815L46.5685 28.1642L43.9765 24.2675C43.9069 24.1628 43.8848 24.0471 43.9103 23.9203C43.9358 23.7936 44.0009 23.6954 44.1055 23.6258L46.689 21.9073C46.7937 21.8376 46.9094 21.8156 47.0362 21.8411C47.163 21.8666 47.2611 21.9316 47.3308 22.0363L53.4642 31.257C53.5338 31.3617 53.5559 31.4774 53.5304 31.6042C53.5049 31.7309 53.4398 31.8291 53.3351 31.8987L51.0799 33.3989C50.8896 33.5255 50.7231 33.5744 50.5805 33.5457C50.4316 33.5075 50.3302 33.4789 50.2763 33.4598L45.443 31.4246L47.8261 35.0073C47.8958 35.112 47.9178 35.2277 47.8923 35.3545C47.8668 35.4812 47.8018 35.5794 47.6971 35.649L45.1136 37.3675Z" fill="#2F8DE4"/>
<path d="M38.3883 44.1923C38.3063 44.2876 38.2009 44.3401 38.0719 44.3498C37.943 44.3595 37.8309 44.3234 37.7356 44.2414L31.7829 39.1218L29.9273 41.2793C29.8454 41.3746 29.7399 41.4271 29.611 41.4368C29.482 41.4465 29.3699 41.4103 29.2746 41.3284L27.1821 39.5287C27.0868 39.4467 27.0343 39.3412 27.0246 39.2123C27.0149 39.0834 27.051 38.9712 27.133 38.8759L33.6835 31.2597C33.7654 31.1644 33.8709 31.1119 33.9998 31.1022C34.1288 31.0925 34.2409 31.1286 34.3362 31.2106L36.4287 33.0103C36.524 33.0923 36.5765 33.1977 36.5862 33.3266C36.5959 33.4556 36.5598 33.5677 36.4778 33.663L34.6222 35.8205L40.5749 40.9402C40.6702 41.0222 40.7227 41.1276 40.7324 41.2566C40.7421 41.3855 40.7059 41.4976 40.624 41.5929L38.3883 44.1923Z" fill="#2F8DE4"/>
<path d="M31.4485 55.1626C31.3885 55.2731 31.2965 55.3466 31.1725 55.3833C31.0485 55.4199 30.9312 55.4083 30.8208 55.3482L21.0911 50.0593C20.9806 49.9993 20.9071 49.9073 20.8704 49.7833C20.8337 49.6593 20.8454 49.5421 20.9055 49.4316L25.1055 41.7051C25.1655 41.5946 25.2575 41.5211 25.3815 41.4844C25.5055 41.4477 25.6227 41.4594 25.7332 41.5195L27.8569 42.6739C27.9673 42.7339 28.0409 42.8259 28.0775 42.9499C28.1142 43.0739 28.1025 43.1911 28.0425 43.3016L25.5863 47.82L26.5352 48.3358L28.8112 44.1487C28.8713 44.0383 28.9633 43.9647 29.0873 43.928C29.2113 43.8914 29.3285 43.9031 29.4389 43.9631L31.3969 45.0274C31.5074 45.0875 31.5809 45.1795 31.6176 45.3035C31.6543 45.4275 31.6426 45.5447 31.5825 45.6551L29.3065 49.8422L30.2554 50.358L32.777 45.7191C32.8371 45.6086 32.9291 45.5351 33.0531 45.4984C33.1771 45.4618 33.2943 45.4734 33.4047 45.5335L35.5284 46.6879C35.6389 46.7479 35.7124 46.8399 35.7491 46.9639C35.7857 47.0879 35.7741 47.2051 35.714 47.3156L31.4485 55.1626Z" fill="#2F8DE4"/>
<path d="M29.5093 61.6851C29.2052 62.7986 28.7763 63.7181 28.2228 64.4436C27.6692 65.1691 26.993 65.6716 26.194 65.9509C25.395 66.2303 24.4769 66.252 23.4395 66.0161C22.9845 65.9037 22.4924 65.7752 21.9632 65.6307C21.434 65.4861 20.9339 65.3436 20.4628 65.2031C19.4936 64.8911 18.7526 64.4162 18.2396 63.7785C17.7186 63.1268 17.4112 62.3438 17.3173 61.4297C17.2124 60.5125 17.3074 59.5137 17.6025 58.4332C17.8404 57.5623 18.1534 56.8066 18.5415 56.1663C18.9186 55.5229 19.3458 54.9998 19.8231 54.597C20.3003 54.1942 20.8011 53.9223 21.3254 53.7811C21.8387 53.637 22.3448 53.6271 22.844 53.7516C22.9432 53.7787 23.0209 53.8414 23.077 53.9396C23.125 54.0239 23.1355 54.1156 23.1084 54.2148L22.1103 57.8695C22.0772 57.9908 22.0335 58.0855 21.9794 58.1536C21.9282 58.2108 21.8676 58.2593 21.7974 58.2994C21.7302 58.3285 21.635 58.3735 21.5117 58.4346C21.3804 58.4817 21.255 58.5719 21.1357 58.7051C21.0054 58.8354 20.9025 59.0383 20.8273 59.3139C20.7159 59.7219 20.7363 60.0592 20.8885 60.3258C21.0298 60.5895 21.3069 60.7896 21.7198 60.926C22.6258 61.209 23.5629 61.465 24.5311 61.6939C25.0332 61.8073 25.4262 61.7784 25.7099 61.6071C25.9936 61.4358 26.1912 61.1462 26.3026 60.7382C26.3779 60.4626 26.4055 60.2095 26.3856 59.979C26.3656 59.7484 26.284 59.5484 26.1407 59.379C25.9974 59.2095 25.788 59.0872 25.5124 59.0119L25.4958 59.0074L25.2836 59.7846C25.2504 59.9059 25.1777 59.9986 25.0654 60.0627C24.9532 60.1268 24.8364 60.1423 24.7151 60.1092L22.8795 59.6079C22.7582 59.5747 22.6655 59.502 22.6014 59.3898C22.5373 59.2775 22.5218 59.1607 22.5549 59.0394L23.7969 54.4917C23.8301 54.3704 23.9028 54.2777 24.0151 54.2136C24.1273 54.1495 24.2441 54.134 24.3654 54.1671L26.5152 54.7543C27.5075 55.0253 28.2736 55.4951 28.8136 56.1639C29.3537 56.8327 29.6826 57.6452 29.8006 58.6015C29.9105 59.5437 29.8134 60.5716 29.5093 61.6851Z" fill="#2F8DE4"/>
<path opacity="0.5" d="M135.285 78.1454C135.23 79.4128 135.013 80.4501 134.635 81.2573C134.257 82.0646 133.779 82.6616 133.202 83.0484C132.625 83.4352 132.022 83.6264 131.393 83.622C131.29 83.6175 131.206 83.5795 131.14 83.5081C131.064 83.4247 131.028 83.3316 131.032 83.2289L131.173 79.9748C131.181 79.7921 131.216 79.6563 131.277 79.5674C131.327 79.4667 131.4 79.3612 131.496 79.2509C131.581 79.1402 131.66 79.0293 131.734 78.918C131.796 78.7949 131.848 78.6599 131.889 78.5129C131.918 78.3541 131.937 78.1833 131.945 78.0006C131.962 77.6124 131.935 77.3024 131.865 77.0706C131.784 76.8269 131.67 76.7018 131.521 76.6953C131.384 76.6894 131.267 76.7529 131.17 76.886C131.073 77.0076 130.984 77.2268 130.901 77.5436C130.807 77.8598 130.714 78.3019 130.621 78.8698C130.456 79.7664 130.211 80.5393 129.885 81.1887C129.56 81.8381 129.132 82.3343 128.602 82.6774C128.062 83.0086 127.415 83.1578 126.661 83.1252C125.885 83.0915 125.209 82.8449 124.634 82.3853C124.06 81.9142 123.624 81.2833 123.326 80.4926C123.029 79.6904 122.903 78.7698 122.948 77.7308C122.986 76.8744 123.133 76.1201 123.39 75.4678C123.635 74.8149 123.951 74.2681 124.336 73.8272C124.71 73.3858 125.107 73.0541 125.529 72.8322C125.95 72.6102 126.35 72.5017 126.727 72.5066C126.83 72.5111 126.919 72.555 126.996 72.6384C127.061 72.7099 127.092 72.7913 127.088 72.8826L126.94 76.308C126.933 76.4678 126.904 76.5981 126.854 76.6989C126.804 76.7883 126.732 76.8824 126.636 76.9812C126.576 77.0358 126.509 77.1415 126.433 77.2984C126.347 77.4434 126.299 77.6358 126.288 77.8755C126.276 78.161 126.312 78.3742 126.398 78.5152C126.472 78.6442 126.584 78.712 126.732 78.7184C126.835 78.7229 126.934 78.6757 127.03 78.5769C127.126 78.4781 127.214 78.2931 127.294 78.0221C127.375 77.751 127.46 77.3601 127.551 76.8492C127.737 75.7134 128 74.8096 128.338 74.1379C128.665 73.4543 129.086 72.9692 129.602 72.6827C130.118 72.3848 130.747 72.2519 131.489 72.2841C132.323 72.3202 133.031 72.6026 133.615 73.1312C134.199 73.6484 134.638 74.3424 134.932 75.2131C135.214 76.0832 135.332 77.0607 135.285 78.1454Z" fill="#2F8DE4"/>
<path opacity="0.5" d="M131.573 96.3547C131.54 96.4762 131.468 96.5693 131.356 96.634C131.244 96.6987 131.127 96.7148 131.006 96.6823L120.308 93.8211C120.186 93.7886 120.093 93.7164 120.028 93.6045C119.964 93.4925 119.948 93.3758 119.98 93.2544L121.322 88.2364C121.591 87.2318 121.973 86.3994 122.469 85.7394C122.957 85.0654 123.559 84.6054 124.275 84.3593C124.984 84.0992 125.796 84.0917 126.713 84.3368C127.629 84.5818 128.324 84.9924 128.797 85.5684C129.261 86.1305 129.531 86.8238 129.607 87.6484C129.674 88.4589 129.573 89.3666 129.304 90.3713L128.994 91.5305L132.157 92.3765C132.279 92.409 132.372 92.4812 132.437 92.5931C132.501 92.7051 132.517 92.8218 132.485 92.9432L131.573 96.3547ZM125.908 90.7939L126.218 89.6347C126.266 89.458 126.245 89.2692 126.157 89.0682C126.058 88.8642 125.848 88.7193 125.528 88.6337C125.318 88.5776 125.094 88.5767 124.854 88.631C124.618 88.6743 124.46 88.845 124.38 89.1431L124.07 90.3023L125.908 90.7939Z" fill="#2F8DE4"/>
<path opacity="0.5" d="M127.328 105.141C126.789 106.123 126.166 106.902 125.458 107.479C124.757 108.045 123.987 108.379 123.149 108.48C122.307 108.565 121.429 108.383 120.516 107.934C120.099 107.719 119.661 107.485 119.2 107.232C118.739 106.979 118.296 106.729 117.87 106.483C117.011 105.959 116.391 105.319 116.01 104.563C115.63 103.806 115.483 102.97 115.569 102.052C115.656 101.135 115.968 100.185 116.507 99.2035C117.046 98.2216 117.679 97.4479 118.406 96.8824C119.134 96.3169 119.918 95.9914 120.76 95.9059C121.608 95.8105 122.481 95.9896 123.379 96.4433C123.821 96.6597 124.272 96.8943 124.733 97.1472C125.194 97.4001 125.624 97.6493 126.024 97.8947C126.894 98.4241 127.516 99.0719 127.891 99.8381C128.261 100.589 128.393 101.417 128.287 102.324C128.186 103.22 127.866 104.159 127.328 105.141ZM124.397 103.533C124.578 103.202 124.629 102.885 124.549 102.58C124.458 102.269 124.205 101.994 123.79 101.753C123.37 101.496 122.95 101.253 122.529 101.022C122.108 100.791 121.687 100.573 121.265 100.367C120.979 100.223 120.718 100.152 120.483 100.153C120.253 100.145 120.054 100.198 119.886 100.315C119.708 100.426 119.558 100.591 119.437 100.812C119.322 101.022 119.263 101.237 119.259 101.457C119.252 101.661 119.31 101.863 119.436 102.062C119.567 102.251 119.77 102.428 120.045 102.592C120.45 102.827 120.863 103.06 121.284 103.291C121.705 103.522 122.133 103.751 122.569 103.977C123.001 104.188 123.37 104.253 123.674 104.173C123.975 104.077 124.216 103.864 124.397 103.533Z" fill="#2F8DE4"/>
<path opacity="0.5" d="M115.387 120.133C115.302 120.226 115.195 120.275 115.066 120.28C114.937 120.286 114.826 120.246 114.733 120.161L106.579 112.667C106.487 112.582 106.438 112.475 106.432 112.346C106.427 112.217 106.467 112.106 106.552 112.013L109.986 108.277C111.099 107.065 112.243 106.37 113.416 106.191C114.589 106.012 115.651 106.36 116.602 107.234C117.166 107.752 117.538 108.335 117.719 108.982C117.9 109.613 117.934 110.243 117.823 110.87L122.128 111.963C122.202 111.984 122.26 112.014 122.302 112.052C122.377 112.122 122.418 112.213 122.422 112.326C122.426 112.423 122.394 112.51 122.324 112.585L119.946 115.173C119.791 115.341 119.633 115.429 119.472 115.435C119.31 115.442 119.189 115.431 119.106 115.402L115.698 114.272L115.222 114.79L117.633 117.005C117.726 117.09 117.775 117.198 117.78 117.327C117.786 117.456 117.746 117.567 117.661 117.659L115.387 120.133ZM112.824 112.586L113.671 111.664C113.849 111.471 113.917 111.27 113.876 111.061C113.834 110.836 113.729 110.647 113.561 110.492C113.393 110.337 113.195 110.241 112.966 110.202C112.738 110.147 112.527 110.224 112.333 110.435L111.486 111.356L112.824 112.586Z" fill="#2F8DE4"/>
<path opacity="0.5" d="M103.339 128.505C103.234 128.574 103.118 128.596 102.992 128.57C102.865 128.544 102.767 128.479 102.698 128.374L96.5902 119.136C96.5209 119.031 96.4991 118.916 96.525 118.789C96.5508 118.662 96.6162 118.564 96.721 118.495L100.839 115.772C101.736 115.18 102.637 114.803 103.544 114.641C104.445 114.47 105.298 114.537 106.102 114.841C106.915 115.139 107.62 115.708 108.216 116.547C108.506 116.944 108.755 117.3 108.963 117.615C109.164 117.92 109.385 118.274 109.624 118.677C110.179 119.599 110.451 120.487 110.441 121.343C110.426 122.189 110.164 122.986 109.657 123.732C109.154 124.462 108.444 125.13 107.529 125.735L103.339 128.505ZM104.684 123.608L105.614 122.994C105.824 122.855 105.984 122.694 106.096 122.51C106.211 122.311 106.264 122.091 106.255 121.85C106.247 121.609 106.159 121.352 105.992 121.079C105.828 120.79 105.674 120.536 105.529 120.316C105.394 120.091 105.249 119.872 105.094 119.659C104.943 119.43 104.773 119.193 104.583 118.948C104.3 118.56 103.979 118.355 103.621 118.331C103.272 118.301 102.936 118.394 102.612 118.608L101.754 119.175L104.684 123.608Z" fill="#2F8DE4"/>
<path opacity="0.5" d="M88.5505 133.792C88.4291 133.825 88.3124 133.809 88.2003 133.744C88.0883 133.68 88.0159 133.587 87.9831 133.466L85.9394 125.885L83.1918 126.626C83.0704 126.658 82.9537 126.642 82.8416 126.578C82.7295 126.513 82.6571 126.421 82.6244 126.299L81.906 123.634C81.8732 123.513 81.8891 123.396 81.9536 123.284C82.0181 123.172 82.111 123.1 82.2324 123.067L91.9318 120.452C92.0532 120.419 92.1699 120.435 92.282 120.5C92.3941 120.564 92.4665 120.657 92.4992 120.778L93.2176 123.443C93.2503 123.565 93.2345 123.681 93.17 123.793C93.1055 123.906 93.0126 123.978 92.8912 124.011L90.1436 124.751L92.1873 132.332C92.22 132.454 92.2042 132.57 92.1397 132.682C92.0752 132.794 91.9823 132.867 91.8609 132.9L88.5505 133.792Z" fill="#2F8DE4"/>
<path opacity="0.5" d="M77.6968 135.452C77.5715 135.463 77.4594 135.427 77.3604 135.343C77.2615 135.26 77.2066 135.156 77.1958 135.031L76.2416 123.998C76.2308 123.872 76.267 123.76 76.3502 123.661C76.4334 123.562 76.5377 123.507 76.6629 123.497L80.147 123.195C80.2723 123.184 80.3844 123.221 80.4834 123.304C80.5823 123.387 80.6372 123.491 80.6481 123.616L81.6022 134.65C81.613 134.775 81.5768 134.887 81.4936 134.986C81.4104 135.085 81.3062 135.14 81.1809 135.151L77.6968 135.452Z" fill="#2F8DE4"/>
<path opacity="0.5" d="M58.0146 132.837C57.8913 132.812 57.7937 132.746 57.7218 132.639C57.6499 132.531 57.6262 132.416 57.6507 132.293L59.8053 121.43C59.8297 121.307 59.8957 121.209 60.0032 121.137C60.1106 121.065 60.226 121.042 60.3494 121.066L63.0062 121.593C63.2304 121.638 63.3829 121.72 63.4638 121.841C63.5447 121.962 63.5964 122.054 63.6189 122.117L65.5368 127.338L66.4473 122.747C66.4718 122.624 66.5377 122.527 66.6452 122.455C66.7527 122.383 66.8681 122.359 66.9914 122.384L70.0349 122.987C70.1583 123.012 70.2559 123.078 70.3277 123.185C70.3996 123.293 70.4234 123.408 70.3989 123.531L68.2443 134.394C68.2198 134.517 68.1538 134.615 68.0464 134.687C67.9389 134.759 67.8235 134.782 67.7002 134.758L65.0434 134.231C64.8192 134.186 64.6666 134.104 64.5858 133.983C64.5071 133.851 64.4554 133.759 64.4307 133.707L62.4394 128.856L61.6022 133.076C61.5778 133.2 61.5118 133.297 61.4043 133.369C61.2969 133.441 61.1815 133.465 61.0582 133.44L58.0146 132.837Z" fill="#2F8DE4"/>
<path opacity="0.5" d="M45.6863 127.516C45.5721 127.463 45.4927 127.376 45.4479 127.255C45.4032 127.133 45.4071 127.016 45.4598 126.901L50.0967 116.845C50.1493 116.73 50.2363 116.651 50.3576 116.606C50.4789 116.562 50.5966 116.565 50.7108 116.618L58.6971 120.3C58.8112 120.353 58.8907 120.44 58.9354 120.561C58.9802 120.683 58.9762 120.8 58.9236 120.914L57.9115 123.11C57.8589 123.224 57.7719 123.303 57.6506 123.348C57.5293 123.393 57.4116 123.389 57.2974 123.336L52.6271 121.183L52.1749 122.163L56.5027 124.159C56.6169 124.212 56.6963 124.299 56.7411 124.42C56.7858 124.541 56.7819 124.659 56.7292 124.773L55.7961 126.797C55.7435 126.911 55.6565 126.99 55.5352 127.035C55.4139 127.08 55.2961 127.076 55.182 127.023L50.8541 125.028L50.4019 126.009L55.1968 128.219C55.3109 128.272 55.3904 128.359 55.4351 128.48C55.4799 128.602 55.4759 128.719 55.4233 128.834L54.4112 131.029C54.3586 131.143 54.2716 131.222 54.1503 131.267C54.029 131.312 53.9113 131.308 53.7971 131.255L45.6863 127.516Z" fill="#2F8DE4"/>
<path opacity="0.5" d="M33.5378 118.341C33.4392 118.264 33.3788 118.165 33.3566 118.045C33.3416 117.917 33.3765 117.799 33.4616 117.691L40.3269 109.002C40.4048 108.903 40.508 108.846 40.6364 108.831C40.7648 108.816 40.8783 108.848 40.977 108.926L43.6134 111.009C43.7121 111.087 43.7689 111.19 43.784 111.318C43.799 111.447 43.7676 111.56 43.6897 111.659L41.4579 114.483L43.637 116.205L45.8688 113.38C45.9467 113.282 46.0499 113.225 46.1783 113.21C46.3067 113.195 46.4203 113.226 46.5189 113.304L49.1553 115.387C49.254 115.465 49.3108 115.568 49.3259 115.697C49.341 115.825 49.3095 115.939 49.2316 116.037L42.3663 124.727C42.2883 124.825 42.1852 124.882 42.0568 124.897C41.9283 124.912 41.8148 124.881 41.7162 124.803L39.0797 122.72C38.9811 122.642 38.9242 122.539 38.9092 122.41C38.8941 122.282 38.9255 122.168 39.0035 122.07L41.299 119.164L39.1199 117.443L36.8244 120.348C36.7464 120.447 36.6433 120.504 36.5148 120.519C36.3864 120.534 36.2729 120.502 36.1742 120.424L33.5378 118.341Z" fill="#2F8DE4"/>
<path opacity="0.5" d="M24.2105 106.257C24.0753 106.073 24.0224 105.885 24.0518 105.693C24.0905 105.494 24.1629 105.342 24.2692 105.236L32.1405 97.5042C32.1497 97.4975 32.1543 97.4941 32.1543 97.4941C32.1635 97.4873 32.1727 97.4806 32.182 97.4738C32.2649 97.413 32.3543 97.3899 32.4501 97.4046C32.562 97.4218 32.6483 97.4718 32.7091 97.5548L34.5954 100.126C34.8185 100.43 34.8158 100.687 34.5873 100.897L31.0345 104.227L33.1779 103.526C33.2559 103.497 33.3693 103.477 33.518 103.468C33.6667 103.458 33.8019 103.536 33.9236 103.702L34.958 105.111C35.0796 105.277 35.1135 105.43 35.0594 105.568C35.0054 105.707 34.9529 105.81 34.9019 105.875L33.6039 107.7L37.8325 105.32C38.1016 105.165 38.3477 105.24 38.5708 105.544L40.457 108.114C40.5179 108.197 40.5363 108.29 40.5124 108.393C40.5044 108.498 40.459 108.581 40.3761 108.642C40.3668 108.648 40.3576 108.655 40.3484 108.662C40.3484 108.662 40.3438 108.665 40.3346 108.672L30.5973 113.86C30.4708 113.939 30.3037 113.962 30.096 113.931C29.9043 113.901 29.7408 113.794 29.6056 113.61L28.1554 111.633C28.0202 111.449 27.9649 111.277 27.9894 111.117C28.0299 110.96 28.071 110.852 28.1128 110.793L30.1146 107.581L26.4496 108.526C26.3808 108.548 26.262 108.551 26.093 108.533C25.94 108.517 25.7959 108.418 25.6607 108.233L24.2105 106.257Z" fill="#2F8DE4"/>
<g clip-path="url(#clip1_4870_43113)">
<path d="M53.1231 68.0722L48.5234 69.3047L49.7559 73.9043L54.3556 72.6719L53.1231 68.0722Z" fill="#2F8DE4"/>
<path d="M58.9551 71.4394L54.3555 72.6719L55.5879 77.2715L60.1876 76.039L58.9551 71.4394Z" fill="#2F8DE4"/>
<path d="M64.7871 74.8105L60.1875 76.043L61.42 80.6426L66.0196 79.4101L64.7871 74.8105Z" fill="#2F8DE4"/>
<path d="M61.42 80.6386L56.8203 81.8711L58.0528 86.4707L62.6524 85.2383L61.42 80.6386Z" fill="#2F8DE4"/>
<path d="M58.0528 86.4707L53.4531 87.7031L54.6856 92.3028L59.2852 91.0703L58.0528 86.4707Z" fill="#2F8DE4"/>
<path d="M87.7871 68.6464L83.1875 69.8789L84.42 74.4786L89.0196 73.2461L87.7871 68.6464Z" fill="#2F8DE4"/>
<path d="M93.6192 72.0136L89.0195 73.2461L90.252 77.8457L94.8516 76.6133L93.6192 72.0136Z" fill="#2F8DE4"/>
<path d="M99.4473 75.3769L94.8477 76.6094L96.0801 81.209L100.68 79.9765L99.4473 75.3769Z" fill="#2F8DE4"/>
<path d="M91.1504 62.8105L86.5508 64.043L87.7833 68.6426L92.3829 67.4101L91.1504 62.8105Z" fill="#2F8DE4"/>
<path d="M94.5176 56.9785L89.918 58.2109L91.1504 62.8106L95.7501 61.5781L94.5176 56.9785Z" fill="#2F8DE4"/>
<path d="M97.8833 51.1478L96.6509 46.5482L41.4551 61.3378L42.6876 65.9375L38.0879 67.17L46.7152 99.3675L51.3149 98.135L52.5474 102.735L107.743 87.945L106.511 83.3453L111.11 82.1129L102.483 49.9154L97.8833 51.1478ZM100.348 60.3471L105.278 78.7457L100.679 79.9782L101.911 84.5778L55.9145 96.9025L54.6821 92.3029L50.0824 93.5354L43.9201 70.5371L48.5197 69.3047L47.2872 64.705L93.2837 52.3803L94.5162 56.9799L99.1158 55.7475L100.348 60.3471Z" fill="#2F8DE4"/>
<path d="M75.2188 76.9413L70.6192 78.1738L66.0195 79.4062L67.252 84.0059L71.8516 82.7734L76.4513 81.541L81.0509 80.3085L85.6506 79.076L84.4181 74.4764L79.8185 75.7088L75.2188 76.9413Z" fill="#2F8DE4"/>
</g>
<path d="M73.736 67.0731C80.4043 65.2863 84.3616 58.4321 82.5748 51.7638C80.788 45.0954 73.9338 41.1381 67.2655 42.9249C60.5972 44.7117 56.6399 51.5659 58.4266 58.2342C60.2134 64.9026 67.0676 68.8598 73.736 67.0731Z" fill="#EA1836"/>
<path d="M70.1225 56.822C69.995 56.8562 69.8798 56.8436 69.7769 56.7842C69.6709 56.7132 69.6024 56.6197 69.5713 56.5038L67.5727 49.0449C67.5386 48.9174 67.5512 48.8022 67.6106 48.6994C67.67 48.5965 67.7634 48.528 67.8909 48.4938L69.8904 47.958C70.0063 47.927 70.1157 47.9412 70.2186 48.0006C70.3331 48.0568 70.4074 48.1487 70.4415 48.2762L72.4401 55.7351C72.4712 55.851 72.4528 55.9678 72.3849 56.0854C72.3255 56.1882 72.2378 56.2552 72.1219 56.2863L70.1225 56.822ZM71.0825 60.6831C70.955 60.7173 70.8398 60.7047 70.7369 60.6453C70.6341 60.5859 70.5655 60.4924 70.5314 60.3649L69.9583 58.2263C69.9242 58.0988 69.9368 57.9837 69.9962 57.8808C70.0525 57.7663 70.1444 57.692 70.2719 57.6578L72.4104 57.0848C72.5264 57.0537 72.6373 57.0737 72.7433 57.1447C72.8578 57.201 72.9321 57.2929 72.9662 57.4204L73.5393 59.5589C73.5734 59.6864 73.555 59.8032 73.484 59.9092C73.4246 60.0121 73.337 60.079 73.2211 60.1101L71.0825 60.6831Z" fill="white"/>
</g>
<defs>
<clipPath id="clip0_4870_43113">
<rect width="150" height="150" fill="white"/>
</clipPath>
<clipPath id="clip1_4870_43113">
<rect width="66.6667" height="42.8571" fill="white" transform="translate(36.8555 62.5703) rotate(-15)"/>
</clipPath>
</defs>
</svg>
