<svg width="150" height="150" viewBox="0 0 150 150" fill="none" xmlns="http://www.w3.org/2000/svg">
<g clip-path="url(#clip0_4870_43087)">
<path d="M150 75C150 116.421 116.421 150 75 150C33.5786 150 -5.08894e-06 116.421 -3.27835e-06 75C-1.46777e-06 33.5786 33.5786 1.46777e-06 75 3.27835e-06C116.421 5.08894e-06 150 33.5786 150 75Z" fill="#1747A5"/>
<g clip-path="url(#clip1_4870_43087)">
<g clip-path="url(#clip2_4870_43087)">
<path d="M114.794 51.8415L52.6992 35.2031L36.0609 97.2983L98.1561 113.937L114.794 51.8415Z" fill="#2F8DE4"/>
<path d="M58.3515 69.9956L70.7706 73.3233L71.6025 70.2186L74.7073 71.0505L78.0349 58.6314L74.9302 57.7995L75.7621 54.6947L63.343 51.3671L62.5111 54.4718L59.4064 53.6399L56.0787 66.059L59.1835 66.8909L58.3515 69.9956Z" fill="white"/>
<path d="M96.6645 63.6237L97.4965 60.519L85.0774 57.1913L84.2455 60.2961L81.1407 59.4641L77.8131 71.8832L80.9178 72.7151L80.0859 75.8199L92.505 79.1475L93.3369 76.0428L96.4416 76.8747L99.7693 64.4556L96.6645 63.6237Z" fill="white"/>
<path d="M70.9954 60.0741L67.8906 59.2422L66.2268 65.4517L69.3315 66.2836L70.9954 60.0741Z" fill="black"/>
<path d="M89.6243 65.0663L86.5195 64.2344L84.8557 70.4439L87.9605 71.2758L89.6243 65.0663Z" fill="black"/>
<path d="M92.3939 85.7721L55.1367 75.7891L54.3048 78.8938L91.5619 88.8768L92.3939 85.7721Z" fill="white"/>
<path d="M86.7923 94.2538L83.6875 93.4219L82.8556 96.5266L85.9603 97.3586L86.7923 94.2538Z" fill="white"/>
<path d="M58.8509 86.7655L55.7461 85.9336L54.9142 89.0384L58.0189 89.8703L58.8509 86.7655Z" fill="white"/>
<path d="M82.8576 96.5264L58.0195 89.8711L57.1876 92.9759L82.0257 99.6312L82.8576 96.5264Z" fill="white"/>
<path d="M80.585 92.5923L81.4169 89.4875L62.7884 84.496L61.9564 87.6007L58.8517 86.7688L58.0198 89.8736L82.8578 96.5289L83.6898 93.4242L80.585 92.5923Z" fill="#EA1836"/>
<path d="M92.3931 85.772L91.5612 88.8767L54.3041 78.8937L55.136 75.7889L52.0312 74.957L50.3674 81.1666L53.4722 81.9985L51.8083 88.208L54.9131 89.0399L55.745 85.9352L61.9545 87.599L62.7865 84.4942L81.415 89.4857L80.5831 92.5905L86.7926 94.2543L85.9607 97.3591L89.0655 98.191L90.7293 91.9815L93.8341 92.8134L95.4979 86.6039L92.3931 85.772Z" fill="#1747A5"/>
</g>
</g>
<path d="M128.345 69.0486C128.337 68.9546 128.365 68.8707 128.427 68.7967C128.49 68.7227 128.568 68.6818 128.662 68.6741L131.187 68.4654L136.65 65.1111C136.667 65.1011 136.683 65.0912 136.699 65.0812C136.725 65.0791 136.746 65.0773 136.764 65.0759C136.84 65.0696 136.907 65.0899 136.962 65.1369C137.027 65.1918 137.062 65.2576 137.069 65.3345L137.268 67.7434C137.282 67.9143 137.25 68.046 137.171 68.1384C137.093 68.2309 137.033 68.2875 136.992 68.3081L134.522 69.8023L137.204 70.8708C137.248 70.8843 137.316 70.9303 137.409 71.0087C137.501 71.087 137.555 71.2116 137.569 71.3825L137.768 73.7914C137.774 73.8683 137.75 73.9348 137.694 73.991C137.648 74.055 137.586 74.0902 137.509 74.0966C137.492 74.098 137.47 74.0955 137.444 74.0891C137.427 74.0905 137.41 74.0876 137.392 74.0805L131.451 71.6688L128.927 71.8774C128.833 71.8852 128.749 71.8577 128.675 71.795C128.601 71.7323 128.56 71.654 128.553 71.56L128.345 69.0486Z" fill="white"/>
<path d="M126.252 58.5426C126.229 58.4511 126.242 58.3638 126.292 58.2805C126.342 58.1973 126.413 58.1441 126.504 58.1211L134.558 56.0906C134.649 56.0676 134.736 56.0809 134.82 56.1306C134.903 56.1804 134.956 56.2509 134.979 56.3424L135.909 60.0326C136.211 61.2294 136.177 62.2326 135.806 63.042C135.436 63.8514 134.781 64.3745 133.842 64.6113C133.285 64.7517 132.766 64.7455 132.286 64.5926C131.816 64.4459 131.407 64.2087 131.059 63.8809L128.603 66.131C128.559 66.1685 128.517 66.1925 128.475 66.203C128.4 66.2218 128.327 66.2095 128.254 66.166C128.191 66.1287 128.151 66.0726 128.132 65.9978L127.487 63.4421C127.446 63.2759 127.456 63.1407 127.518 63.0367C127.58 62.9326 127.637 62.8608 127.689 62.8212L129.8 61.1487L129.671 60.6375L127.29 61.2378C127.198 61.2609 127.111 61.2475 127.028 61.1978C126.944 61.1481 126.891 61.0775 126.868 60.9861L126.252 58.5426ZM132.04 60.0403L132.269 60.9504C132.317 61.1416 132.415 61.2671 132.563 61.3271C132.721 61.3933 132.883 61.4055 133.049 61.3636C133.216 61.3217 133.358 61.2372 133.476 61.1102C133.605 60.9893 133.643 60.825 133.591 60.6172L133.361 59.7071L132.04 60.0403Z" fill="white"/>
<path d="M122.342 49.2662C122.311 49.1956 122.307 49.1225 122.33 49.0468C122.364 48.9755 122.416 48.9243 122.486 48.8931C122.518 48.8792 122.547 48.871 122.574 48.8684L131.235 48.1703C131.332 48.1557 131.442 48.1724 131.567 48.2204C131.691 48.2685 131.788 48.3709 131.858 48.5277L132.987 51.079C133.056 51.2357 133.067 51.3763 133.019 51.5007C132.971 51.625 132.909 51.7181 132.833 51.7797L126.492 57.7215C126.472 57.7397 126.446 57.7558 126.415 57.7696C126.345 57.8009 126.27 57.8012 126.191 57.7706C126.123 57.7444 126.073 57.696 126.042 57.6255L125.079 55.4504C125.013 55.3015 124.996 55.1779 125.028 55.0796C125.071 54.9857 125.118 54.9131 125.17 54.8618L125.821 54.2362L124.703 51.7084L123.802 51.7697C123.729 51.7739 123.643 51.7603 123.545 51.7288C123.454 51.6939 123.374 51.598 123.305 51.4412L122.342 49.2662ZM127.261 51.2933L127.849 52.6219L129.739 50.9839L127.261 51.2933Z" fill="white"/>
<path d="M119.852 45.6503C119.398 44.9642 119.096 44.2904 118.946 43.6291C118.796 42.9677 118.831 42.3378 119.052 41.7395C119.277 41.1482 119.72 40.6136 120.38 40.1355C120.668 39.9343 120.98 39.7225 121.316 39.5001C121.652 39.2778 121.976 39.0684 122.288 38.8721C122.972 38.4606 123.632 38.2702 124.269 38.3007C124.911 38.3384 125.51 38.5531 126.068 38.9448C126.63 39.3436 127.131 39.8753 127.571 40.54C127.874 40.9974 128.111 41.4724 128.283 41.9651C128.467 42.4601 128.562 42.9525 128.567 43.4423C128.573 43.932 128.467 44.3929 128.249 44.8248C128.043 45.2592 127.7 45.6409 127.218 45.9698C127.154 46.0124 127.08 46.0252 126.997 46.0083C126.926 45.9938 126.869 45.9544 126.826 45.8901L125.378 43.7031C125.303 43.5887 125.267 43.4888 125.272 43.4032C125.289 43.3201 125.341 43.2192 125.427 43.1006C125.603 42.8706 125.686 42.6616 125.675 42.4738C125.664 42.286 125.596 42.0991 125.473 41.9133C125.317 41.6774 125.127 41.5306 124.904 41.4729C124.693 41.4175 124.418 41.4915 124.08 41.6949C123.48 42.0615 122.879 42.4589 122.279 42.8873C121.959 43.1193 121.78 43.3457 121.742 43.5667C121.715 43.7901 121.779 44.0197 121.936 44.2555C122.059 44.4414 122.208 44.5738 122.384 44.6528C122.564 44.7389 122.785 44.7468 123.047 44.6763C123.192 44.6316 123.305 44.6236 123.386 44.6524C123.466 44.6812 123.545 44.7528 123.62 44.8671L125.068 47.0541C125.111 47.1184 125.121 47.1886 125.1 47.2646C125.09 47.343 125.053 47.4035 124.989 47.4461C124.498 47.7607 124.009 47.9303 123.521 47.9549C123.046 47.9819 122.584 47.8972 122.135 47.7009C121.686 47.5045 121.266 47.2274 120.875 46.8696C120.496 46.5141 120.155 46.1077 119.852 45.6503Z" fill="white"/>
<path d="M114.311 38.588C113.747 37.9892 113.335 37.3767 113.074 36.7505C112.814 36.1243 112.741 35.4976 112.857 34.8704C112.978 34.2494 113.324 33.6472 113.893 33.0638C114.143 32.8165 114.414 32.5547 114.707 32.2784C115 32.0021 115.284 31.7407 115.558 31.4941C116.162 30.9723 116.78 30.6723 117.413 30.594C118.052 30.522 118.679 30.6315 119.295 30.9226C119.917 31.2199 120.501 31.6586 121.048 32.2387C121.424 32.6379 121.739 33.0656 121.992 33.5218C122.258 33.9784 122.435 34.4475 122.524 34.9292C122.612 35.4108 122.586 35.883 122.445 36.3457C122.316 36.8088 122.043 37.2433 121.624 37.6493C121.568 37.7022 121.498 37.7274 121.413 37.7249C121.34 37.7228 121.278 37.6936 121.225 37.6375L119.426 35.7288C119.332 35.629 119.28 35.5365 119.27 35.4513C119.273 35.3665 119.306 35.2584 119.371 35.1269C119.506 34.8701 119.552 34.6502 119.509 34.467C119.465 34.2838 119.367 34.1111 119.215 33.949C119.021 33.7431 118.809 33.6307 118.579 33.6118C118.361 33.5932 118.103 33.7129 117.804 33.9709C117.275 34.4342 116.751 34.9281 116.232 35.4524C115.957 35.7353 115.819 35.9889 115.819 36.2132C115.83 36.4379 115.933 36.6532 116.127 36.859C116.28 37.0212 116.45 37.1263 116.636 37.1742C116.829 37.2284 117.048 37.1985 117.294 37.0846C117.429 37.0158 117.539 36.9887 117.623 37.0034C117.708 37.018 117.797 37.0752 117.891 37.175L119.69 39.0837C119.743 39.1399 119.765 39.2072 119.757 39.2858C119.761 39.3647 119.734 39.4307 119.678 39.4836C119.248 39.8771 118.795 40.1274 118.319 40.2346C117.855 40.3422 117.385 40.3373 116.91 40.2202C116.434 40.103 115.973 39.9014 115.527 39.6153C115.093 39.3296 114.688 38.9872 114.311 38.588Z" fill="white"/>
<path d="M104.089 29.7145C104.028 29.6681 103.988 29.6063 103.971 29.5291C103.967 29.4502 103.987 29.38 104.034 29.3184C104.054 29.291 104.076 29.2697 104.098 29.2543L111.326 24.4305C111.403 24.3707 111.508 24.3316 111.64 24.313C111.772 24.2945 111.906 24.3368 112.043 24.44L114.271 26.1197C114.408 26.2229 114.486 26.3405 114.504 26.4726C114.523 26.6046 114.514 26.716 114.478 26.8068L111.829 35.0827C111.82 35.1084 111.805 35.1349 111.785 35.1623C111.738 35.2239 111.673 35.2606 111.589 35.2724C111.517 35.2825 111.45 35.2643 111.389 35.2179L109.489 33.7859C109.359 33.6879 109.284 33.5882 109.264 33.4871C109.255 33.3842 109.262 33.2976 109.282 33.2274L109.547 32.3641L107.34 30.6999L106.582 31.1917C106.521 31.231 106.439 31.2608 106.338 31.2811C106.242 31.2946 106.125 31.2497 105.989 31.1465L104.089 29.7145ZM109.373 29.0927L110.533 29.9674L111.387 27.6167L109.373 29.0927Z" fill="white"/>
<path d="M100.036 27.5115C99.9528 27.4672 99.897 27.3987 99.8687 27.306C99.8403 27.2133 99.8482 27.1253 99.8925 27.042L102.656 21.8423L100.772 20.8406C100.688 20.7964 100.633 20.7279 100.604 20.6351C100.576 20.5424 100.584 20.4544 100.628 20.3712L101.6 18.5433C101.644 18.4601 101.712 18.4043 101.805 18.3759C101.898 18.3475 101.986 18.3555 102.069 18.3997L108.722 21.936C108.805 21.9802 108.861 22.0487 108.889 22.1414C108.918 22.2342 108.91 22.3222 108.866 22.4054L107.894 24.2332C107.85 24.3165 107.781 24.3723 107.689 24.4007C107.596 24.429 107.508 24.4211 107.425 24.3768L105.54 23.3751L102.776 28.5748C102.732 28.658 102.663 28.7139 102.571 28.7422C102.478 28.7706 102.39 28.7626 102.307 28.7184L100.036 27.5115Z" fill="white"/>
<path d="M93.5125 24.8613C92.6155 24.5443 91.9189 24.1617 91.4227 23.7136C90.9265 23.2655 90.6029 22.792 90.452 22.2932C90.301 21.7944 90.296 21.3199 90.4369 20.8697C90.4626 20.7969 90.5083 20.7449 90.5739 20.7135C90.6505 20.677 90.7251 20.6715 90.7979 20.6972L93.1011 21.5113C93.2304 21.557 93.3202 21.6115 93.3706 21.6747C93.4319 21.7328 93.4916 21.8084 93.5495 21.9016C93.6103 21.9867 93.6726 22.0678 93.7363 22.1449C93.8109 22.2167 93.8964 22.2833 93.9929 22.3447C94.1003 22.4008 94.2187 22.4518 94.348 22.4975C94.6228 22.5946 94.851 22.6434 95.0326 22.644C95.2252 22.6393 95.34 22.5844 95.3772 22.4794C95.4114 22.3824 95.3915 22.2844 95.3174 22.1855C95.2513 22.0895 95.1137 21.9772 94.9046 21.8487C94.6983 21.7122 94.4017 21.5482 94.0148 21.3569C93.4077 21.0424 92.907 20.6972 92.5125 20.3214C92.1181 19.9457 91.8558 19.5302 91.7257 19.0752C91.6066 18.6149 91.6413 18.118 91.8298 17.5846C92.024 17.0351 92.349 16.6045 92.8046 16.2928C93.2683 15.9839 93.8163 15.8095 94.4487 15.7693C95.0892 15.732 95.7771 15.8434 96.5125 16.1033C97.1186 16.3175 97.6275 16.5883 98.0391 16.9156C98.4535 17.2348 98.7767 17.5808 99.0086 17.9537C99.2433 18.3185 99.3941 18.6763 99.461 19.0272C99.5278 19.3781 99.5182 19.6884 99.432 19.9579C99.4063 20.0307 99.3552 20.0853 99.2786 20.1219C99.213 20.1532 99.1478 20.1575 99.0832 20.1346L96.6587 19.2777C96.5456 19.2378 96.4584 19.1887 96.3971 19.1307C96.3438 19.0755 96.2923 19.0028 96.2424 18.9124C96.2163 18.8577 96.1552 18.7861 96.0592 18.6977C95.9741 18.604 95.8468 18.5271 95.677 18.4671C95.475 18.3957 95.3141 18.3752 95.1942 18.4056C95.0854 18.4307 95.0123 18.4958 94.9752 18.6009C94.9495 18.6736 94.9616 18.7552 95.0115 18.8455C95.0614 18.9359 95.1747 19.0396 95.3515 19.1566C95.5283 19.2737 95.79 19.4207 96.1365 19.5977C96.9104 19.9803 97.5012 20.3664 97.909 20.756C98.3277 21.1404 98.5833 21.5489 98.6759 21.9816C98.7765 22.4172 98.7339 22.8976 98.5483 23.4229C98.3398 24.0129 97.982 24.4591 97.4751 24.7618C96.9762 25.0673 96.3822 25.2301 95.6933 25.2502C95.0072 25.2623 94.2803 25.1327 93.5125 24.8613Z" fill="white"/>
<path d="M79.0016 21.6569C78.9081 21.6443 78.8314 21.6037 78.7715 21.5351C78.7126 21.458 78.6901 21.3685 78.7038 21.2666L79.8111 13.035C79.8237 12.9416 79.8685 12.8654 79.9456 12.8066C80.0227 12.7478 80.108 12.7247 80.2014 12.7373L82.6989 13.0732C82.7924 13.0858 82.8685 13.1306 82.9273 13.2077C82.9861 13.2848 83.0093 13.3701 82.9967 13.4635L82.6367 16.1394L84.701 16.4171L85.061 13.7412C85.0735 13.6478 85.1184 13.5717 85.1955 13.5128C85.2726 13.454 85.3578 13.4309 85.4513 13.4435L87.9488 13.7794C88.0422 13.792 88.1184 13.8368 88.1772 13.9139C88.236 13.991 88.2591 14.0763 88.2466 14.1698L87.1392 22.4013C87.1267 22.4948 87.0818 22.5709 87.0047 22.6297C86.9276 22.6885 86.8424 22.7117 86.7489 22.6991L84.2514 22.3631C84.158 22.3506 84.0818 22.3057 84.023 22.2286C83.9642 22.1515 83.9411 22.0662 83.9536 21.9728L84.3239 19.2204L82.2596 18.9428L81.8894 21.6951C81.8768 21.7886 81.832 21.8647 81.7549 21.9235C81.6778 21.9823 81.5925 22.0054 81.4991 21.9929L79.0016 21.6569Z" fill="white"/>
<path d="M72.7415 21.6957C72.6473 21.699 72.5647 21.6676 72.4938 21.6014C72.4229 21.5353 72.3858 21.4551 72.3825 21.3608L72.1781 15.4758L70.0451 15.5499C69.9508 15.5532 69.8683 15.5218 69.7973 15.4556C69.7264 15.3895 69.6893 15.3093 69.6861 15.215L69.6142 13.1463C69.6109 13.0521 69.6424 12.9695 69.7085 12.8986C69.7747 12.8277 69.8548 12.7906 69.9491 12.7873L77.4788 12.5257C77.573 12.5224 77.6556 12.5539 77.7265 12.62C77.7974 12.6862 77.8345 12.7663 77.8378 12.8606L77.9097 14.9293C77.9129 15.0236 77.8815 15.1061 77.8154 15.177C77.7492 15.2479 77.669 15.285 77.5748 15.2883L75.4418 15.3624L75.6463 21.2474C75.6495 21.3417 75.6181 21.4242 75.552 21.4952C75.4858 21.5661 75.4056 21.6032 75.3114 21.6064L72.7415 21.6957Z" fill="white"/>
<path d="M66.4393 22.3024C66.3461 22.3167 66.2604 22.2952 66.1822 22.2378C66.104 22.1805 66.0578 22.1052 66.0434 22.012L64.7815 13.8027C64.7672 13.7095 64.7887 13.6238 64.8461 13.5456C64.9034 13.4674 64.9787 13.4212 65.0719 13.4069L67.6643 13.0084C67.7575 12.994 67.8432 13.0156 67.9214 13.0729C67.9996 13.1303 68.0459 13.2055 68.0602 13.2987L69.3221 21.508C69.3364 21.6012 69.3149 21.6869 69.2575 21.7651C69.2002 21.8433 69.1249 21.8896 69.0317 21.9039L66.4393 22.3024Z" fill="white"/>
<path d="M57.2463 24.9469C57.0823 24.9969 56.9361 24.9876 56.8078 24.9192C56.6769 24.8426 56.587 24.7535 56.5381 24.6519L53.0191 17.1625C53.0166 17.1543 53.0153 17.1502 53.0153 17.1502C53.0128 17.142 53.0103 17.1338 53.0078 17.1256C52.9854 17.0518 52.9912 16.9828 53.0254 16.9186C53.0653 16.8438 53.1222 16.7951 53.196 16.7726L55.4835 16.0754C55.7541 15.993 55.9354 16.0587 56.0275 16.2726L57.5026 19.6134L57.5383 17.9223C57.5372 17.86 57.5516 17.7749 57.5815 17.6672C57.6115 17.5596 57.7002 17.4832 57.8478 17.4382L59.1023 17.0559C59.2498 17.011 59.3661 17.0248 59.4509 17.0975C59.5358 17.1702 59.5952 17.2328 59.6291 17.2852L60.5981 18.6565L59.963 15.0732C59.9202 14.8443 60.034 14.6886 60.3046 14.6062L62.5922 13.909C62.666 13.8865 62.7362 13.8965 62.8029 13.9389C62.8753 13.9706 62.9227 14.0233 62.9452 14.0971C62.9477 14.1053 62.9502 14.1135 62.9527 14.1217C62.9527 14.1217 62.9539 14.1258 62.9564 14.134L64.2125 22.3131C64.2368 22.4222 64.2119 22.5463 64.1378 22.6854C64.0694 22.8137 63.9532 22.9029 63.7892 22.9529L62.0305 23.4889C61.8665 23.5388 61.731 23.5353 61.624 23.4783C61.5228 23.4106 61.4564 23.3547 61.425 23.3105L59.6482 21.0966L59.4081 23.9252C59.4066 23.9794 59.3787 24.064 59.3242 24.1792C59.2754 24.2837 59.169 24.3609 59.005 24.4109L57.2463 24.9469Z" fill="white"/>
<path d="M48.9919 28.8402C48.9097 28.8864 48.822 28.8964 48.7286 28.8703C48.6352 28.8441 48.5654 28.7899 48.5192 28.7078L47.2777 26.5L41.9519 22.9309C41.936 22.9202 41.9201 22.9094 41.9042 22.8987C41.8916 22.8763 41.8811 22.8576 41.8727 22.8426C41.8349 22.7754 41.8258 22.7068 41.8454 22.6367C41.8683 22.555 41.9134 22.4953 41.9806 22.4574L44.0875 21.2727C44.237 21.1887 44.37 21.163 44.4868 21.1957C44.6035 21.2284 44.6798 21.2592 44.7158 21.2882L47.1031 22.9106L46.9571 20.0278C46.9511 19.9821 46.9644 19.9008 46.9971 19.7841C47.0298 19.6674 47.1208 19.567 47.2703 19.483L49.3771 18.2982C49.4444 18.2604 49.5151 18.2551 49.5894 18.2822C49.6669 18.2976 49.7245 18.3389 49.7623 18.4061C49.7707 18.4211 49.7775 18.4419 49.7826 18.4685C49.791 18.4834 49.7957 18.5005 49.7966 18.5196L50.0794 24.9246L51.3209 27.1323C51.3671 27.2145 51.3771 27.3023 51.351 27.3956C51.3248 27.489 51.2706 27.5588 51.1885 27.605L48.9919 28.8402Z" fill="white"/>
<path d="M39.9072 35.3434C39.8465 35.3911 39.7768 35.4132 39.6978 35.4099C39.6203 35.3945 39.5577 35.3565 39.51 35.2959C39.4888 35.2689 39.4736 35.2427 39.4645 35.2172L36.6473 26.997C36.6093 26.907 36.5981 26.7958 36.614 26.6634C36.6298 26.531 36.7051 26.4118 36.8398 26.3059L39.0329 24.5811C39.1676 24.4752 39.3012 24.4301 39.4336 24.4459C39.566 24.4618 39.6714 24.4988 39.7499 24.557L47.0744 29.2324C47.0971 29.2473 47.119 29.2682 47.1402 29.2951C47.1879 29.3558 47.2067 29.4282 47.1966 29.5125C47.188 29.5847 47.1533 29.6447 47.0927 29.6923L45.223 31.1627C45.095 31.2634 44.9795 31.3106 44.8765 31.3044C44.7749 31.2862 44.6928 31.258 44.6302 31.22L43.8631 30.7438L41.6903 32.4526L41.9723 33.3104C41.9945 33.3802 42.0024 33.4666 41.9962 33.5696C41.9847 33.6659 41.9116 33.767 41.7768 33.873L39.9072 35.3434ZM40.6558 30.0765L41.7978 29.1784L39.7434 27.7517L40.6558 30.0765Z" fill="white"/>
<path d="M35.157 40.32C35.0924 40.3887 35.0116 40.4244 34.9146 40.4274C34.8177 40.4303 34.7349 40.3994 34.6663 40.3348L28.6193 34.6411C28.5506 34.5764 28.5148 34.4956 28.5119 34.3987C28.509 34.3018 28.5399 34.219 28.6045 34.1504L30.3673 32.2782C30.4319 32.2096 30.5127 32.1738 30.6096 32.1709C30.7065 32.168 30.7893 32.1988 30.858 32.2634L35.2388 36.3883L37.6802 33.7954C37.7448 33.7267 37.8256 33.691 37.9225 33.688C38.0195 33.6851 38.1023 33.716 38.1709 33.7806L39.5844 35.1115C39.653 35.1761 39.6888 35.2569 39.6917 35.3539C39.6946 35.4508 39.6638 35.5336 39.5991 35.6022L35.157 40.32Z" fill="white"/>
<path d="M30.1262 47.3669C30.0728 47.4446 29.9984 47.4923 29.9031 47.51C29.8077 47.5277 29.7212 47.5099 29.6435 47.4565L22.7975 42.7536C22.7197 42.7002 22.672 42.6258 22.6543 42.5305C22.6367 42.4351 22.6545 42.3486 22.7079 42.2709L24.9137 39.0598C25.3554 38.4169 25.8342 37.9243 26.3501 37.582C26.8638 37.2278 27.4048 37.0534 27.9729 37.0589C28.5388 37.0525 29.115 37.2508 29.7014 37.6536C30.2878 38.0564 30.676 38.5207 30.866 39.0464C31.0538 39.5602 31.071 40.1179 30.9176 40.7197C30.762 41.3095 30.4634 41.9259 30.0217 42.5688L29.5121 43.3106L31.5363 44.7011C31.614 44.7545 31.6617 44.8289 31.6794 44.9242C31.6971 45.0196 31.6792 45.1061 31.6258 45.1838L30.1262 47.3669ZM27.5152 42.0168L28.0248 41.275C28.1025 41.162 28.1353 41.0233 28.1233 40.8591C28.1043 40.69 27.9923 40.5351 27.7874 40.3944C27.6532 40.3022 27.4947 40.2453 27.3119 40.2237C27.134 40.1951 26.9795 40.2762 26.8485 40.4669L26.3389 41.2087L27.5152 42.0168Z" fill="white"/>
<path opacity="0.5" d="M115.03 123.823C114.958 123.884 114.874 123.911 114.778 123.903C114.681 123.896 114.602 123.856 114.541 123.784L110.721 119.303L109.097 120.687C109.025 120.749 108.941 120.775 108.844 120.768C108.747 120.76 108.668 120.72 108.607 120.648L107.264 119.073C107.203 119.001 107.176 118.917 107.184 118.82C107.192 118.724 107.232 118.645 107.303 118.584L113.037 113.696C113.109 113.635 113.193 113.608 113.29 113.616C113.386 113.624 113.465 113.663 113.527 113.735L114.869 115.31C114.931 115.382 114.957 115.466 114.95 115.563C114.942 115.66 114.902 115.739 114.83 115.8L113.206 117.184L117.026 121.666C117.087 121.737 117.114 121.822 117.106 121.918C117.099 122.015 117.059 122.094 116.987 122.155L115.03 123.823Z" fill="white"/>
<path opacity="0.5" d="M108.368 128.696C108.29 128.748 108.203 128.765 108.108 128.746C108.013 128.727 107.939 128.678 107.887 128.6L103.275 121.692C103.223 121.614 103.206 121.527 103.225 121.432C103.244 121.337 103.293 121.263 103.371 121.211L105.553 119.754C105.631 119.702 105.718 119.685 105.813 119.704C105.908 119.723 105.982 119.772 106.034 119.85L110.646 126.758C110.698 126.837 110.715 126.923 110.696 127.019C110.677 127.114 110.628 127.187 110.55 127.24L108.368 128.696Z" fill="white"/>
<path opacity="0.5" d="M97.6223 134.021C97.5527 134.054 97.4798 134.061 97.4034 134.04C97.3311 134.009 97.2783 133.958 97.2449 133.888C97.2301 133.857 97.2209 133.829 97.2175 133.802L96.2539 125.166C96.2363 125.07 96.2496 124.959 96.2938 124.833C96.338 124.707 96.4374 124.607 96.592 124.533L99.1074 123.326C99.2619 123.252 99.4021 123.237 99.5279 123.281C99.6537 123.325 99.7486 123.384 99.8126 123.458L105.946 129.613C105.965 129.633 105.982 129.658 105.997 129.689C106.03 129.759 106.033 129.833 106.005 129.913C105.98 129.982 105.934 130.033 105.864 130.066L103.72 131.095C103.573 131.166 103.45 131.187 103.35 131.158C103.255 131.119 103.181 131.073 103.128 131.023L102.483 130.391L99.9909 131.587L100.08 132.485C100.086 132.558 100.075 132.644 100.047 132.744C100.015 132.835 99.9213 132.918 99.7668 132.992L97.6223 134.021ZM99.4975 129.043L100.807 128.414L99.112 126.575L99.4975 129.043Z" fill="white"/>
<path opacity="0.5" d="M87.6467 136.748C87.4811 136.792 87.3353 136.778 87.2093 136.705C87.0811 136.624 86.9943 136.532 86.9489 136.429L83.6858 128.824C83.6836 128.816 83.6825 128.812 83.6825 128.812C83.6803 128.804 83.678 128.795 83.6758 128.787C83.6559 128.713 83.664 128.644 83.7004 128.581C83.7428 128.507 83.8013 128.461 83.8758 128.441L86.1857 127.821C86.4589 127.748 86.6379 127.82 86.7226 128.037L88.0837 131.426L88.1767 129.737C88.1777 129.675 88.195 129.59 88.2285 129.483C88.2621 129.377 88.3534 129.304 88.5024 129.264L89.7691 128.924C89.9181 128.884 90.0338 128.902 90.1162 128.977C90.1985 129.053 90.2558 129.118 90.2879 129.171L91.2098 130.574L90.6966 126.972C90.6615 126.741 90.7806 126.59 91.0538 126.516L93.3637 125.897C93.4382 125.877 93.508 125.89 93.5733 125.934C93.6445 125.968 93.6901 126.023 93.7101 126.097C93.7123 126.106 93.7146 126.114 93.7168 126.122C93.7168 126.122 93.7179 126.126 93.7201 126.134L94.6982 134.351C94.7188 134.461 94.6897 134.584 94.6109 134.721C94.5382 134.847 94.419 134.932 94.2534 134.977L92.4776 135.453C92.312 135.497 92.1767 135.489 92.0717 135.428C91.9728 135.357 91.9084 135.299 91.8785 135.254L90.1777 132.981L89.8418 135.8C89.8386 135.854 89.8078 135.938 89.7494 136.051C89.6971 136.154 89.5881 136.227 89.4226 136.272L87.6467 136.748Z" fill="white"/>
<path opacity="0.5" d="M75.4341 138.01C74.6113 138.018 73.8815 137.901 73.2447 137.659C72.6165 137.417 72.1241 137.036 71.7674 136.517C71.4106 135.998 71.2282 135.335 71.22 134.53L71.1666 129.271C71.1657 129.177 71.1991 129.095 71.267 129.026C71.3349 128.957 71.4159 128.922 71.5102 128.921L74.0301 128.895C74.1244 128.894 74.2061 128.928 74.2754 128.996C74.3447 129.063 74.3798 129.145 74.3807 129.239L74.4336 134.446C74.4368 134.763 74.5164 135.006 74.6725 135.176C74.837 135.346 75.0779 135.429 75.395 135.426C75.7122 135.423 75.947 135.335 76.0995 135.162C76.2606 134.989 76.3396 134.743 76.3364 134.426L76.2835 129.219C76.2825 129.125 76.316 129.043 76.3839 128.974C76.4517 128.905 76.5328 128.87 76.6271 128.869L79.147 128.843C79.2413 128.842 79.323 128.876 79.3923 128.944C79.4616 129.011 79.4967 129.093 79.4976 129.187L79.551 134.445C79.5592 135.251 79.3902 135.917 79.0441 136.443C78.698 136.97 78.2134 137.36 77.5902 137.615C76.9671 137.87 76.2484 138.002 75.4341 138.01Z" fill="white"/>
<path opacity="0.5" d="M64.3903 137.023C63.5617 136.885 62.8557 136.637 62.2724 136.279C61.6975 135.922 61.2705 135.46 60.9915 134.892C60.7224 134.317 60.6337 133.651 60.7253 132.893C60.7746 132.545 60.8317 132.176 60.8965 131.787C60.9614 131.398 61.0283 131.023 61.0974 130.661C61.2552 129.922 61.5547 129.325 61.9958 128.868C62.4369 128.412 62.9928 128.1 63.6635 127.934C64.3343 127.768 65.0839 127.754 65.9125 127.892C66.7411 128.03 67.4456 128.287 68.0262 128.661C68.6067 129.036 69.0316 129.511 69.3007 130.086C69.5783 130.662 69.6677 131.325 69.569 132.073C69.5253 132.439 69.4711 132.817 69.4062 133.206C69.3414 133.595 69.2716 133.961 69.1969 134.305C69.0377 135.052 68.7333 135.653 68.2837 136.108C67.8441 136.556 67.2903 136.855 66.6223 137.004C65.9629 137.155 65.2188 137.161 64.3903 137.023ZM64.8025 134.55C65.0816 134.597 65.319 134.554 65.5149 134.421C65.7122 134.28 65.8446 134.033 65.9123 133.679C65.9898 133.319 66.0581 132.961 66.1173 132.606C66.1765 132.25 66.2266 131.898 66.2675 131.549C66.2985 131.311 66.2844 131.108 66.2252 130.942C66.1745 130.777 66.0871 130.65 65.9631 130.559C65.8405 130.461 65.6862 130.396 65.5002 130.365C65.3227 130.335 65.1557 130.347 64.9993 130.399C64.8527 130.444 64.7245 130.535 64.6146 130.674C64.5131 130.813 64.4384 131 64.3905 131.236C64.3243 131.581 64.2615 131.931 64.2023 132.286C64.1432 132.641 64.0875 133.001 64.0353 133.366C63.993 133.724 64.0381 134.001 64.1706 134.197C64.3129 134.386 64.5235 134.504 64.8025 134.55Z" fill="white"/>
<path opacity="0.5" d="M53.1755 133.835C53.0865 133.804 53.0209 133.745 52.9787 133.658C52.9365 133.571 52.931 133.482 52.962 133.393L53.7958 131.002L52.9477 124.647C52.9452 124.628 52.9428 124.609 52.9403 124.59C52.9488 124.565 52.9558 124.545 52.9615 124.529C52.9869 124.456 53.0323 124.404 53.0978 124.372C53.1742 124.335 53.2488 124.33 53.3217 124.355L55.6041 125.151C55.766 125.207 55.8733 125.29 55.926 125.399C55.9787 125.508 56.0061 125.586 56.0082 125.632L56.3715 128.496L58.4363 126.479C58.4666 126.444 58.5363 126.4 58.6454 126.347C58.7546 126.295 58.8901 126.296 59.052 126.353L61.3344 127.149C61.4072 127.174 61.4581 127.223 61.4869 127.297C61.5266 127.365 61.5338 127.436 61.5084 127.509C61.5027 127.525 61.4916 127.544 61.4751 127.565C61.4694 127.581 61.4597 127.596 61.446 127.61L56.8309 132.06L55.9971 134.451C55.9661 134.54 55.9069 134.606 55.8196 134.648C55.7323 134.69 55.6441 134.696 55.5551 134.665L53.1755 133.835Z" fill="white"/>
<path opacity="0.5" d="M39.1337 126.441C39.0535 126.392 39.0023 126.32 38.9801 126.225C38.9579 126.131 38.9716 126.043 39.0213 125.963L43.3935 118.902C43.4431 118.821 43.5151 118.77 43.6095 118.748C43.7039 118.726 43.7912 118.739 43.8714 118.789L49.4792 122.261C49.5594 122.311 49.6106 122.383 49.6328 122.477C49.655 122.572 49.6413 122.659 49.5917 122.739L48.6373 124.28C48.5877 124.361 48.5157 124.412 48.4213 124.434C48.3269 124.456 48.2396 124.442 48.1595 124.393L44.88 122.362L44.4536 123.051L47.4926 124.933C47.5727 124.982 47.6239 125.054 47.6461 125.149C47.6683 125.243 47.6546 125.33 47.605 125.411L46.7251 126.832C46.6755 126.912 46.6035 126.963 46.5091 126.985C46.4147 127.007 46.3274 126.994 46.2472 126.944L43.2083 125.062L42.7819 125.751L46.1488 127.836C46.2289 127.885 46.2801 127.957 46.3023 128.052C46.3245 128.146 46.3108 128.233 46.2612 128.314L45.3069 129.855C45.2573 129.935 45.1852 129.986 45.0908 130.009C44.9964 130.031 44.9092 130.017 44.829 129.967L39.1337 126.441Z" fill="white"/>
<path opacity="0.5" d="M31.7845 120.313C31.7131 120.252 31.6739 120.173 31.6668 120.076C31.6598 119.979 31.6871 119.895 31.7487 119.824L37.1781 113.538C37.2397 113.467 37.3189 113.428 37.4156 113.421C37.5124 113.414 37.5964 113.441 37.6677 113.503L39.6137 115.184C39.685 115.245 39.7242 115.324 39.7313 115.421C39.7384 115.518 39.7111 115.602 39.6495 115.673L35.7161 120.227L38.4112 122.555C38.4826 122.616 38.5218 122.696 38.5288 122.792C38.5359 122.889 38.5086 122.973 38.447 123.044L37.1779 124.514C37.1163 124.585 37.0371 124.624 36.9404 124.631C36.8436 124.638 36.7596 124.611 36.6883 124.549L31.7845 120.313Z" fill="white"/>
<path opacity="0.5" d="M27.5 115.741C27.437 115.67 27.4081 115.587 27.4134 115.49C27.4186 115.393 27.4563 115.313 27.5265 115.25L33.7075 109.702C33.7777 109.639 33.8612 109.611 33.958 109.616C34.0548 109.621 34.1347 109.659 34.1977 109.729L35.9497 111.681C36.0127 111.751 36.0416 111.834 36.0363 111.931C36.0311 112.028 35.9934 112.108 35.9232 112.171L29.7422 117.719C29.672 117.782 29.5885 117.811 29.4917 117.806C29.3949 117.8 29.315 117.763 29.252 117.692L27.5 115.741Z" fill="white"/>
<path opacity="0.5" d="M21.02 106.3C20.9676 106.221 20.9474 106.137 20.9592 106.047C20.9782 105.952 21.0305 105.876 21.116 105.818L28.0245 101.208C28.1029 101.155 28.1897 101.139 28.2848 101.158C28.3799 101.177 28.4536 101.225 28.5059 101.304L29.9048 103.4C29.9572 103.478 29.9738 103.565 29.9549 103.66C29.9359 103.755 29.8872 103.829 29.8088 103.881L27.563 105.38L28.7192 107.113L30.965 105.614C31.0434 105.561 31.1302 105.545 31.2253 105.564C31.3204 105.583 31.3941 105.631 31.4465 105.71L32.8454 107.806C32.8977 107.884 32.9144 107.971 32.8954 108.066C32.8764 108.161 32.8278 108.235 32.7493 108.287L25.8409 112.898C25.7624 112.95 25.6757 112.967 25.5806 112.948C25.4855 112.929 25.4118 112.88 25.3594 112.802L23.9605 110.706C23.9082 110.627 23.8915 110.541 23.9105 110.446C23.9294 110.35 23.9781 110.277 24.0566 110.224L26.3665 108.683L25.2103 106.95L22.9003 108.492C22.8219 108.544 22.7351 108.561 22.64 108.542C22.5449 108.523 22.4712 108.474 22.4189 108.396L21.02 106.3Z" fill="white"/>
<path opacity="0.5" d="M16.3698 95.7952C16.3032 95.6372 16.2972 95.4909 16.352 95.3561C16.4147 95.218 16.494 95.1194 16.59 95.0603L23.6761 90.7867C23.684 90.7834 23.6879 90.7817 23.6879 90.7817C23.6958 90.7784 23.7037 90.7751 23.7116 90.7717C23.7827 90.7418 23.8519 90.7405 23.9193 90.7678C23.9979 90.7998 24.0522 90.8513 24.0822 90.9224L25.0118 93.1257C25.1218 93.3863 25.0751 93.5735 24.8719 93.6871L21.7013 95.4993L23.3869 95.3603C23.4489 95.3527 23.535 95.3583 23.6451 95.3769C23.7553 95.3955 23.8404 95.4759 23.9004 95.6181L24.4102 96.8264C24.4702 96.9685 24.4684 97.0856 24.4049 97.1775C24.3413 97.2694 24.2852 97.335 24.2366 97.3741L22.9726 98.4795L26.4713 97.4778C26.6945 97.4115 26.8611 97.5087 26.971 97.7693L27.9007 99.9727C27.9307 100.044 27.928 100.115 27.8927 100.185C27.8687 100.261 27.8211 100.313 27.75 100.343C27.7421 100.347 27.7342 100.35 27.7263 100.353C27.7263 100.353 27.7224 100.355 27.7145 100.358L19.7088 102.452C19.6028 102.488 19.4768 102.476 19.3309 102.416C19.1961 102.361 19.0954 102.255 19.0288 102.097L18.314 100.403C18.2474 100.245 18.2369 100.11 18.2826 99.9979C18.3394 99.8901 18.3882 99.8184 18.429 99.7826L20.4475 97.7866L17.6093 97.8399C17.5552 97.8441 17.4681 97.825 17.3479 97.7827C17.239 97.7449 17.1512 97.6471 17.0845 97.4891L16.3698 95.7952Z" fill="white"/>
</g>
<defs>
<clipPath id="clip0_4870_43087">
<rect width="150" height="150" fill="white"/>
</clipPath>
<clipPath id="clip1_4870_43087">
<rect x="52.6992" y="35.2031" width="64.2857" height="64.2857" rx="15.4286" transform="rotate(15 52.6992 35.2031)" fill="white"/>
</clipPath>
<clipPath id="clip2_4870_43087">
<rect width="64.2857" height="64.2857" fill="white" transform="translate(52.6992 35.2031) rotate(15)"/>
</clipPath>
</defs>
</svg>
