<svg width="1000" height="757" viewBox="0 0 1000 757" fill="none" xmlns="http://www.w3.org/2000/svg">
<path d="M166.597 481.225V563.711L190.41 549.971L214.176 536.231V618.671L261.802 591.191V508.751L285.569 495.011L309.381 481.271V398.785L166.597 481.225Z" fill="white"/>
<path d="M523.604 275.124V302.604L499.791 316.344V426.263L523.604 412.523V440.003L642.575 371.303V316.344L547.37 371.303V343.823L642.575 288.864V206.424L523.604 275.124Z" fill="white"/>
<path d="M690.155 178.945V206.425L666.388 220.165V330.085L690.155 316.345V343.825L809.172 275.125V220.165L713.967 275.125V247.645L809.172 192.685V110.245L690.155 178.945Z" fill="white"/>
<path d="M23.8128 563.709V591.189L0 604.929V687.369L23.8128 673.629V701.109L71.3921 673.629V701.109L23.8128 728.589V756.069L119.018 701.109V673.629L142.784 659.889V632.409L119.018 646.149V618.669L71.3921 646.149V618.669L142.784 577.449V494.963L23.8128 563.709Z" fill="white"/>
<path d="M951.957 110.246V82.7665L904.377 110.246V82.7665L951.957 55.2866V27.8066L856.752 82.7665V110.246L832.985 123.986V151.466L856.752 137.726V165.206L904.377 137.726V165.206L832.985 206.426V261.386L951.957 192.686V165.206L975.77 151.466V96.5065L951.957 110.246Z" fill="white"/>
<path d="M473.982 340.39L460.103 348.421V332.406L446.224 340.437V324.422L432.344 332.453V316.438L418.465 324.469V308.454L390.707 324.469V340.483L376.827 348.514V364.528L362.948 372.558V388.573L349.069 396.603V412.618L335.19 420.648V436.663L321.311 444.693V508.798L335.19 500.767V516.782L376.827 492.737V476.722L390.707 468.692V500.767L362.948 516.782V532.796L446.224 484.706V468.692L418.465 484.706V452.631L432.344 444.6V460.615L473.982 436.57V420.555L487.861 412.525V348.421L473.982 356.451V340.437V340.39ZM376.827 412.525L390.707 404.495V420.509L376.827 428.54V412.525ZM432.344 428.586L376.827 460.661V444.647L432.344 412.571V428.586ZM432.344 396.511L418.465 404.541V388.527L432.344 380.496V396.511Z" fill="white"/>
<path d="M981.061 13.6915L977.347 15.8268L974.609 31.1914L971.916 32.7696L974.655 17.405L970.57 19.7724L971.127 16.7551L981.618 10.7207L981.061 13.7379V13.6915Z" fill="white"/>
<path d="M996.797 18.4283L994.198 19.9137L997.029 4.64188L990.623 21.9561L988.303 23.3022L987.421 10.1657L984.821 25.2982L982.222 26.7836L985.517 8.4018L989.417 6.12728L990.113 18.1962L996.101 2.27452L1000 0L996.704 18.3818L996.797 18.4283Z" fill="white"/>
<path d="M30.4975 525.786C29.3371 525.971 26.4127 526.436 26.4127 522.861C26.4127 519.798 28.8729 515.434 33.0041 513.067C36.1142 511.257 38.3887 511.535 39.3635 513.578L36.532 516.92C36.0214 515.574 34.7681 515.295 32.8649 516.363C30.7296 517.616 29.8941 519.38 29.8941 520.355C29.8941 521.794 31.0546 521.608 31.5652 521.562C31.8901 521.515 33.6076 521.237 33.9789 521.144C35.1858 520.958 38.2495 520.494 38.2495 524.207C38.2495 527.967 35.1858 532.702 31.1474 535.023C29.4299 536.044 27.666 536.462 26.5055 536.183C24.7416 535.766 24.3702 534.002 24.1846 533.352L27.2482 530.242C27.666 532.702 29.4763 532.609 31.4259 531.495C33.7004 530.195 34.6752 528.153 34.6752 526.76C34.6752 525.136 33.3755 525.321 32.3079 525.507L30.4047 525.832L30.4975 525.786Z" fill="white"/>
<path d="M59.2769 498.21L58.6271 501.924L54.078 504.523L50.6895 523.369L47.3473 525.273L50.7359 506.427L45.7227 509.305L46.3725 505.591L59.2305 498.164L59.2769 498.21Z" fill="white"/>
<path d="M67.1678 513.855L63.8721 515.758L67.9105 493.245L71.2062 491.342L67.1678 513.855Z" fill="white"/>
<path d="M92.5593 493.432C91.1203 498.863 87.8245 502.391 84.6681 504.201C82.3471 505.547 77.4731 507.265 77.4731 499.884C77.4731 494.592 79.8869 485.912 86.7105 481.966C89.2171 480.527 90.6561 480.667 91.3988 480.945C93.2091 481.641 93.3484 483.916 93.3948 484.891L90.1919 487.397C90.1919 487.072 90.1919 486.748 90.0991 486.283C89.7741 483.916 87.9638 484.427 86.7105 485.169C82.0686 487.862 80.8617 494.824 80.8617 497.424C80.8617 501.23 82.6256 501.927 84.8537 500.673C88.0566 498.816 89.2635 495.057 89.6813 493.71L92.5593 493.432Z" fill="white"/>
<path d="M115.212 480.34C113.773 485.771 110.477 489.299 107.32 491.109C104.999 492.455 100.125 494.173 100.125 486.792C100.125 481.501 102.539 472.82 109.363 468.875C111.869 467.436 113.308 467.575 114.051 467.853C115.861 468.55 116.001 470.824 116.047 471.799L112.844 474.306C112.844 473.981 112.844 473.656 112.751 473.192C112.426 470.824 110.616 471.335 109.363 472.078C104.721 474.77 103.514 481.733 103.514 484.332C103.514 488.138 105.278 488.835 107.506 487.581C110.709 485.725 111.916 481.965 112.334 480.619L115.212 480.34Z" fill="white"/>
<path d="M128.302 478.578L124.959 480.482L126.584 471.523L122.917 461.45L126.306 459.5L128.673 467.067L134.197 454.951L138.003 452.77L129.88 469.62L128.255 478.578H128.302Z" fill="white"/>
<path d="M188.275 422.408C185.536 420.83 182.287 421.154 178.48 423.336C174.628 425.564 171.378 428.999 168.64 433.734C167.897 435.034 167.294 436.287 166.736 437.54C166.179 436.89 165.576 436.333 164.833 435.916C162.095 434.337 158.845 434.662 155.039 436.844C151.186 439.072 147.937 442.507 145.198 447.242C142.459 451.977 141.067 456.572 141.067 460.982C141.067 465.438 142.413 468.409 145.152 469.987C147.89 471.565 151.186 471.24 155.039 469.012C158.892 466.784 162.141 463.349 164.88 458.614C165.622 457.361 166.226 456.061 166.783 454.808C167.34 455.458 167.943 456.015 168.686 456.433C171.425 458.011 174.721 457.686 178.573 455.458C182.38 453.23 185.675 449.795 188.414 445.06C191.153 440.325 192.499 435.73 192.499 431.32C192.499 426.91 191.153 423.893 188.414 422.315L188.275 422.408ZM165.39 452.766C164.833 454.437 164.091 456.061 163.116 457.779C160.841 461.725 158.103 464.649 154.9 466.459C151.697 468.316 148.958 468.594 146.684 467.248C144.409 465.902 143.295 463.396 143.295 459.728C143.295 456.015 144.409 452.209 146.684 448.263C148.958 444.317 151.697 441.439 154.9 439.583C158.103 437.726 160.841 437.447 163.116 438.794C164.091 439.351 164.833 440.186 165.39 441.161C164.787 443.296 164.462 445.432 164.462 447.52C164.462 449.609 164.787 451.327 165.39 452.766ZM186.604 444.225C184.329 448.17 181.591 451.095 178.388 452.905C175.185 454.762 172.446 455.04 170.171 453.694C167.897 452.348 166.783 449.841 166.783 446.174C166.783 442.461 167.897 438.654 170.171 434.709C172.446 430.763 175.185 427.885 178.388 426.028C181.591 424.172 184.329 423.893 186.604 425.239C188.878 426.539 190.039 429.046 190.039 432.759C190.039 436.473 188.878 440.279 186.604 444.225Z" fill="white"/>
<path d="M178.434 446.175C176.995 447.011 175.881 447.057 174.999 446.361C174.117 445.665 173.699 444.319 173.699 442.323C173.699 440.327 174.117 438.331 174.952 436.613C175.788 434.896 176.995 433.596 178.527 432.714C180.708 431.461 181.962 431.739 182.333 433.549L184.886 432.064C184.608 430.532 183.911 429.604 182.751 429.325C181.59 429.047 180.198 429.372 178.527 430.347C176.206 431.693 174.395 433.549 173.049 435.917C171.703 438.331 171.053 440.884 171.053 443.669C171.053 446.5 171.75 448.357 173.096 449.239C174.442 450.121 176.206 449.935 178.434 448.636C181.962 446.593 184.19 443.344 185.025 438.98L182.472 440.466C182.054 442.926 180.708 444.829 178.434 446.129V446.175Z" fill="white"/>
<path d="M154.946 459.729C153.507 460.565 152.393 460.611 151.511 459.915C150.629 459.218 150.211 457.872 150.211 455.876C150.211 453.88 150.629 451.884 151.465 450.167C152.3 448.449 153.507 447.15 155.039 446.268C157.221 445.014 158.474 445.293 158.845 447.103L161.398 445.618C161.12 444.086 160.423 443.158 159.263 442.879C158.102 442.601 156.71 442.925 155.039 443.9C152.718 445.246 150.908 447.103 149.561 449.471C148.215 451.884 147.565 454.437 147.565 457.222C147.565 460.054 148.262 461.911 149.608 462.793C150.954 463.675 152.718 463.489 154.946 462.189C158.474 460.147 160.702 456.898 161.537 452.534L158.984 454.02C158.567 456.48 157.221 458.383 154.946 459.683V459.729Z" fill="white"/>
<path d="M965.124 243.254L962.318 264.351L965.66 275.3L961.054 277.959L957.712 267.01L944.225 255.319L948.934 252.601L958.426 261.42L959.865 246.29L965.124 243.254Z" fill="white"/>
<path d="M939.397 266.998L935.469 270.595C934.267 269.227 931.972 266.839 927.882 269.201C922.038 272.574 922.914 281.235 925.414 285.566C927.062 288.419 930.309 291.265 935.327 288.367C936.599 287.633 940.29 285.135 938.402 279.167L931.94 282.898L930.591 278.498L941.247 272.346L945.708 286.82L941.686 289.141L941.283 287.174C940.685 288.757 939.543 291.066 936.14 293.031C928.269 297.575 922.785 292.125 920.781 288.654C917.288 282.604 916 270.928 925.659 265.351C929.887 262.91 934.935 262.287 939.397 266.998Z" fill="white"/>
<path d="M886.927 288.4L896.036 283.141C899.198 281.315 904.257 279.678 907.412 285.143C909.119 288.099 909.742 293.148 905.725 296.429L914.756 304.689L910.012 307.428L901.643 299.52L896.555 302.457L899.873 313.282L895.335 315.902L886.927 288.4ZM892.768 290.023L895.316 298.406L900.404 295.468C902.844 294.059 904.847 291.574 902.961 288.309C901.473 285.731 899.127 286.352 896.859 287.662L892.768 290.023Z" fill="white"/>
<path d="M873.625 296.08L875.014 300.549L862.984 307.495L864.957 314.009L876.403 307.401L877.752 311.801L866.306 318.409L868.669 326.074L882.486 318.096L883.855 322.53L865.534 333.108L857.127 305.606L873.625 296.08Z" fill="white"/>
<path d="M844.168 313.087L852.576 340.589L848.555 342.911L830.816 329.412L837.315 349.4L832.881 351.96L824.473 324.459L828.598 322.077L846.327 335.719L839.803 315.608L844.168 313.087Z" fill="white"/>
<path d="M811.171 332.138L812.559 336.607L800.529 343.553L802.503 350.067L813.949 343.458L815.297 347.858L803.851 354.467L806.214 362.131L820.032 354.154L821.4 358.588L803.08 369.165L794.672 341.664L811.171 332.138Z" fill="white"/>
<path d="M745.98 369.777L752.58 365.967C756.567 363.665 760.501 361.668 764.758 363.564C767.427 364.773 769.245 367.207 770.415 369.235C773.134 373.944 774.491 381.135 769.987 386.989C768.372 389.113 765.8 390.69 764.528 391.424L754.388 397.279L745.98 369.777ZM751.96 371.641L757.586 390.116L762.26 387.417C769.1 383.468 768.534 376.692 765.755 371.88C762.362 366.002 758.078 368.108 754.297 370.291L751.96 371.641Z" fill="white"/>
<path d="M723.692 405.514L727.888 402.541L728.067 402.851C729.059 404.569 731.38 406.208 734.302 404.521C738.048 402.358 736.821 398.804 736.325 397.945C734.777 395.264 732.352 395.747 730.118 397.037C729.878 397.176 729.657 397.349 729.436 397.523L728.197 393.472C728.767 393.189 729.268 392.945 729.749 392.667C733.29 390.623 732.662 387.869 732.126 386.941C731.074 385.119 728.938 385.07 727.322 386.002C724.607 387.57 724.804 389.977 725.206 391.624L720.511 393.097C719.478 387.736 721.747 384.363 725.528 382.18C728.828 380.275 733.738 379.732 736.14 383.891C738.481 387.947 735.383 392.027 733.856 392.954C734.726 392.635 738.269 391.231 740.671 395.39C743.528 400.34 740.879 405.673 736.273 408.333C729.673 412.143 725.861 408.477 723.692 405.514Z" fill="white"/>
<path d="M691.513 401.223L699.92 428.725L695.349 431.364L691.587 419.054L681.035 425.146L684.797 437.457L680.225 440.096L671.817 412.594L676.389 409.955L679.686 420.746L690.238 414.654L686.941 403.863L691.513 401.223Z" fill="white"/>
<path d="M661.386 418.617L662.74 423.105L656.45 426.737L663.504 449.75L658.898 452.409L651.844 429.396L644.901 433.405L643.547 428.916L661.386 418.617Z" fill="white"/>
<path d="M633.974 434.443L642.382 461.945L637.81 464.584L629.403 437.083L633.974 434.443Z" fill="white"/>
<path d="M618.713 443.254L621.69 473.891L616.431 476.927C616.009 476.117 607.143 459.65 607.143 459.65L609.659 480.837L604.366 483.893L590.355 459.626L594.79 457.066L605.086 476.328L602.248 452.76L606.751 450.16L617.013 469.442L614.141 445.893L618.713 443.254Z" fill="white"/>
<path d="M563.783 474.968L565.171 479.437L553.141 486.383L555.114 492.897L566.56 486.289L567.909 490.689L556.463 497.297L558.826 504.961L572.644 496.984L574.012 501.418L555.692 511.996L547.284 484.494L563.783 474.968Z" fill="white"/>
<path d="M534.308 491.985L542.716 519.487L538.316 522.027L531.519 499.141L532.267 525.52L528.348 527.782L515.261 508.528L522.47 531.176L518.036 533.736L509.629 506.234L516.263 502.404L528.063 520.064L527.64 495.835L534.308 491.985Z" fill="white"/>
<path d="M508.842 539.045L504.271 541.684L500.872 536.909L492.004 542.029L492.24 548.63L487.256 551.507L487.166 519.203L492.219 516.286L508.842 539.045ZM498.36 533.272L491.338 522.936L491.898 537.003L498.36 533.272Z" fill="white"/>
<path d="M471.252 537.281L467.325 540.878C466.123 539.51 463.828 537.122 459.737 539.484C453.894 542.858 454.769 551.518 457.27 555.849C458.917 558.702 462.164 561.548 467.183 558.65C468.454 557.916 472.145 555.419 470.258 549.451L463.796 553.181L462.447 548.781L473.102 542.629L477.563 557.103L473.542 559.425L473.139 557.457C472.54 559.04 471.399 561.349 467.996 563.314C460.125 567.858 454.641 562.408 452.636 558.937C449.144 552.887 447.856 541.211 457.515 535.634C461.742 533.193 466.791 532.57 471.252 537.281Z" fill="white"/>
<path d="M399.187 569.998L405.786 566.187C409.773 563.885 413.708 561.889 417.965 563.785C420.634 564.994 422.451 567.428 423.622 569.456C426.341 574.165 427.697 581.356 423.194 587.21C421.579 589.334 419.006 590.911 417.734 591.645L407.595 597.499L399.187 569.998ZM405.167 571.861L410.792 590.337L415.467 587.638C422.307 583.689 421.74 576.913 418.962 572.1C415.568 566.223 411.285 568.329 407.504 570.512L405.167 571.861Z" fill="white"/>
<path d="M369.352 587.222L378.461 581.963C381.623 580.138 386.682 578.5 389.837 583.966C391.544 586.922 392.167 591.97 388.149 595.252L397.181 603.512L392.437 606.25L384.067 598.342L378.98 601.279L382.297 612.105L377.76 614.724L369.352 587.222ZM375.193 588.845L377.741 597.228L382.828 594.291C385.269 592.882 387.271 590.397 385.386 587.131C383.898 584.553 381.552 585.174 379.284 586.484L375.193 588.845Z" fill="white"/>
<path d="M368.566 620.033L363.994 622.672L360.596 617.897L351.728 623.017L351.964 629.618L346.98 632.496L346.89 600.191L351.943 597.274L368.566 620.033ZM358.084 614.261L351.062 603.924L351.622 617.991L358.084 614.261Z" fill="white"/>
<path d="M332.093 618.954L328.096 622.27C326.409 619.348 323.941 617.932 320.332 620.015C315.004 623.091 315.628 630.522 318.386 635.3C320.093 638.256 323.425 641.328 327.824 638.788C329.062 638.073 332.356 636.08 331.576 629.885L336.515 629.233C337.555 635.003 335.136 640.021 329.98 642.997C325.03 645.855 318.5 646.371 314.015 638.603C310.661 632.794 308.362 621.747 318.089 616.131C327.095 610.932 331.537 617.991 332.093 618.954Z" fill="white"/>
<path d="M280.746 638.379L282.135 642.848L270.104 649.794L272.078 656.308L283.524 649.7L284.873 654.1L273.427 660.708L275.789 668.373L289.607 660.395L290.976 664.829L272.655 675.407L264.247 647.905L280.746 638.379Z" fill="white"/>
<path d="M251.289 655.386L259.697 682.888L255.125 685.527L251.363 673.217L240.811 679.309L244.573 691.62L240.001 694.259L231.593 666.757L236.165 664.118L239.462 674.909L250.015 668.817L246.717 658.026L251.289 655.386Z" fill="white"/>
<path d="M221.162 672.78L222.517 677.269L216.226 680.9L223.28 703.913L218.674 706.572L211.62 683.559L204.677 687.568L203.323 683.079L221.162 672.78Z" fill="white"/>
</svg>
